<svg width="339" height="528" viewBox="0 0 339 528" fill="none" xmlns="http://www.w3.org/2000/svg">
<path fill-rule="evenodd" clip-rule="evenodd" d="M100.204 43.7221C102.565 41.3225 105.583 39.5349 108.883 38.9635C105.867 40.3912 102.918 41.8792 100.204 43.7221ZM95.5815 64.4118C95.1642 62.5832 94.8838 60.7369 94.7955 58.891C95.323 59.6507 96.1654 60.1582 97.1116 60.4204C96.5003 61.717 95.9806 63.0527 95.5815 64.4118ZM253.512 93.0825C250.788 82.3387 238.078 61.6735 235.074 57.696C231.812 47.8474 249.603 39.9492 239.927 32.2479C235.546 28.773 229.757 27.5433 224.325 26.311C186.72 17.7546 146.317 22.0699 111.439 37.8041C106.134 36.7464 100.607 38.8135 96.7488 42.444C78.6243 59.7033 103.325 90.8441 108.726 110.302C117.993 131.997 98.9038 135.647 100.951 154.003C102.541 163.487 112.68 165.993 121.235 167.426C122.607 167.73 124.44 167.776 124.882 169.15C126.268 177.166 131.021 184.805 137.401 189.989C136.843 191.555 137.269 193.456 139.236 194.832C157.062 207.382 179.538 213.663 201.771 212.534C228.266 211.189 241.968 196.801 245.274 193.096C263.556 169.706 261.371 138.844 257.642 110.969C255.044 91.5504 258.338 112.115 253.512 93.0825Z" fill="white"/>
<path fill-rule="evenodd" clip-rule="evenodd" d="M171.815 3.68328C172.647 1.21692 175.005 -0.266337 177.704 0.0398015C180.093 0.307133 182.651 2.55358 182.359 5.03287C182.305 5.51148 182.232 5.95991 182.145 6.38247L182.157 6.38624L182.168 6.38678L182.109 6.55063C181.932 7.33969 181.686 8.04683 181.322 8.71516C180.858 9.99576 180.412 11.2807 179.97 12.5699C180.607 12.544 181.258 12.5785 181.918 12.695C182.601 11.0392 183.288 9.3878 183.97 7.72775C184.703 5.9556 185.217 3.67897 186.665 2.30781C188.517 0.557218 191.73 0.195026 193.987 1.44545C196.372 2.76486 197.223 5.11049 196.704 7.62427C196.441 8.90651 195.536 9.79886 194.417 10.3595L194.297 10.4183L193.437 12.35C193.701 12.2422 193.974 12.143 194.269 12.0611C194.734 11.9318 195.189 11.8498 195.635 11.8153C196.864 9.70687 198.215 7.65876 199.612 5.64946C201.219 3.33833 204.359 2.35524 206.994 3.81694C209.352 5.12342 210.617 8.55562 208.928 10.8107C207.645 12.5225 206.43 14.2688 205.233 16.0323C205.438 16.0668 205.643 16.1099 205.838 16.166C205.929 16.0495 206.025 15.9331 206.125 15.8167C207.431 14.2817 208.951 13.1304 210.512 11.8542C211.973 10.6555 212.647 8.77121 214.567 7.86142C216.984 6.71879 219.896 7.26639 221.335 9.54302C224.42 14.4197 219.241 17.9812 215.928 20.9348C218.809 19.2317 221.808 17.6751 224.884 16.3298C226.614 15.5752 228.371 14.8465 230.155 14.217C232.799 13.2857 234.938 13.5836 237.109 15.3165C238.078 16.0927 238.56 17.7876 238.114 18.9169C237.25 21.0814 235.884 22.3965 233.49 23.0217C231.807 23.4615 230.082 23.759 228.398 24.2204C225.576 24.9879 222.836 25.9236 220.179 27.0921C220.37 27.2042 220.552 27.3249 220.72 27.4629C222.704 26.8549 224.725 26.3289 226.755 25.8805C230.121 25.1326 233.548 24.6273 236.989 24.3113L238.132 24.2105C242.258 23.8354 247.219 23.1431 249.751 26.8851C250.584 28.1183 250.675 30.1535 249.751 31.3737C247.986 33.7193 246.229 34.185 243.307 34.2281C246.183 34.517 249.055 34.8749 251.913 35.2931C253.883 35.5777 255.853 35.9003 257.814 36.2582L258.794 36.4401C261.184 36.8928 263.851 37.1558 265.903 38.4666C270.381 41.3297 268.279 46.9048 263.318 47.4999C260.92 47.7844 258.257 46.8229 255.904 46.3745C253.62 45.939 251.326 45.5552 249.023 45.2189C247.831 45.0421 246.638 44.8869 245.442 44.7446C247.876 45.0766 250.293 45.5466 252.646 46.2106L253.299 46.3975C257.848 47.7109 263.988 49.8028 265.407 54.4074C266.267 57.2057 263.914 59.6462 261.065 59.8101C258.417 59.961 256.209 58.4648 253.961 57.361C252.323 56.559 250.657 55.9596 248.891 55.4465C247.066 54.9162 245.205 54.4764 243.33 54.1185C244.914 54.9456 246.458 55.8546 247.939 56.8715L248.62 57.3481C252.557 60.1276 258.561 64.4309 257.174 69.641C256.737 71.2838 254.803 72.8533 252.946 72.6851C248.113 72.2583 245.446 67.3816 241.801 64.7686C240.85 64.0874 239.807 63.4147 238.715 62.7593C244.24 69.0028 248.636 76.2208 251.981 83.6759C259.333 100.077 261.588 115.266 261.642 132.901L261.643 133.447C261.652 143.175 261.42 153.079 260.419 162.763C259.491 171.71 257.789 180.541 253.506 188.643C246.329 202.229 232.344 212.81 216.92 216.837C199.758 221.322 180.575 217.816 166.517 207.468C162.931 204.829 167.687 199.099 171.35 201.535C185.982 211.258 204.905 214.337 221.699 207.757C235.02 202.539 245.746 191.316 250.293 178.393C253.187 170.172 254.029 161.407 255.062 152.839L255.131 152.268C256.223 143.308 256.856 134.288 256.847 125.268C256.833 108.516 254.293 94.7271 246.516 79.5323C242.857 72.3747 238.11 65.7565 232.439 59.948C230.719 60.2801 228.889 59.8144 227.151 59.6376C226.263 59.5471 225.376 59.4608 224.488 59.3832C225.395 59.9386 226.284 60.516 227.158 61.1069L228.304 61.89C231.891 64.3238 236.442 67.096 235.52 71.8012C235.27 73.0732 233.932 74.2417 232.635 74.5306C227.934 75.5913 224.702 71.2622 221.526 68.6924C218.763 66.4589 215.873 64.4582 212.929 62.4532C212.26 62.0005 211.586 61.5477 210.908 61.0993C211.545 61.803 212.165 62.5177 212.769 63.2391L213.663 64.3123C216.368 67.5183 220.266 71.6854 217.858 75.8414C217.175 77.0142 215.719 77.7946 214.308 77.7687C209.456 77.6739 207.527 72.4566 205.251 69.1624C203.294 66.3381 201.169 63.6778 198.971 61.0174C198.365 60.2887 197.756 59.56 197.137 58.8313C186.947 59.3315 176.793 60.6078 166.818 62.6472C159.964 64.0486 153.223 65.8643 146.533 67.8516L145.977 68.0192C142.357 69.1236 138.626 70.5371 136.016 72.9611C135.643 74.6311 135.929 76.3924 136.286 78.0603L136.564 79.3369C137.708 84.6752 138.488 89.9147 137.905 95.3954C137.299 101.048 135.502 106.132 133.308 111.384C132.27 113.859 131.196 113.41 130.828 116.066C130.545 118.089 130.72 120.178 130.913 122.218L131.074 123.947C131.479 128.478 131.682 133.417 128.548 137.155C128.061 137.729 127.019 137.5 126.673 136.927C126.536 136.698 126.39 136.478 126.231 136.267C124.72 134.193 122.404 133.012 119.755 132.555C119.418 132.499 119.55 132.072 119.832 132.037C122.072 131.787 124.192 132.317 125.995 133.413C125.14 130.613 118.523 131.974 116.348 132.518L116.273 132.537C113.561 133.227 110.994 134.348 108.732 135.935C104.181 139.126 101.551 144.102 101.683 149.461C101.815 154.73 104.686 159.598 109.62 162.121C112 163.337 114.708 163.923 117.402 163.897C120.215 163.871 122.718 162.703 125.535 162.867C127.164 162.961 128.411 164.617 127.469 166.062C126.841 167.027 126.022 167.786 125.075 168.368C127.383 173.409 130.327 178.217 133.722 182.653C135.602 185.115 137.732 187.388 140.075 189.462C141.905 191.083 145.869 192.959 145.646 195.662C145.569 196.637 145.036 197.232 144.099 197.594C141.184 198.723 137.64 194.835 135.69 192.961L135.534 192.812C133.103 190.518 130.887 187.983 128.957 185.292C125.535 180.515 123.41 175.129 122.531 169.472C117.857 170.805 111.668 169.554 107.854 167.92C95.8665 162.789 91.9481 147.495 99.2343 137.31C100.645 135.34 102.411 133.654 104.423 132.292C103.981 132.063 103.567 131.77 103.198 131.399C101.159 129.347 99.7173 126.669 98.2864 124.2L98.1148 123.905C96.8445 121.732 95.6462 119.525 94.523 117.283L94.1053 116.441C91.5976 111.332 89.3995 109.098 87.6109 103.726C85.8906 98.543 84.5344 93.2611 83.6561 87.8886L83.4226 86.4665C82.9147 83.3491 82.4342 80.0155 82.805 76.8503C80.2519 77.6394 77.6851 78.1266 75.1592 76.9409C73.4935 76.1604 72.5742 73.8838 73.1431 72.2496C73.5573 71.0466 74.249 70.1024 75.1274 69.3607C74.604 69.1106 74.1125 68.7916 73.6801 68.438L73.3024 68.128C71.7732 66.8685 71.664 64.4754 72.5924 62.8973C72.6835 62.7464 72.7745 62.5912 72.8609 62.4403C73.7438 60.9441 75.5688 59.9653 77.371 59.9912C77.6623 59.9955 77.9536 59.9955 78.2494 59.9912C77.4074 59.8144 76.5837 59.5427 75.8009 59.0857C72.2693 57.029 72.7153 51.4538 76.9888 50.4707C78.7819 50.0611 80.7616 50.2292 82.7367 50.669C82.6639 50.6302 82.5911 50.5914 82.5183 50.5483C81.0255 49.6816 79.774 47.9871 79.9151 46.2494C80.0698 44.3264 80.7252 42.9552 82.5183 41.9463C84.0747 41.0753 86.2775 40.9933 87.8248 41.9463C89.1674 42.7784 90.4826 43.6968 91.7478 44.6842C90.4781 43.2053 89.3767 41.597 88.9307 39.8895C88.38 37.7638 89.2994 35.4484 91.32 34.3273C92.9311 33.4347 94.6332 33.5339 96.1533 34.2238C96.0713 33.107 96.358 31.9687 97.1408 30.9598C98.7428 28.8905 101.655 27.7 104.19 29.2092C104.523 29.4075 104.969 29.7482 105.401 30.1664C104.559 27.6267 105.319 24.962 108.191 23.8151C109.943 23.1123 112.314 23.4658 113.834 24.6775C112.869 19.7318 120.574 16.097 123.569 21.2065C124.248 22.3639 124.921 23.5827 125.522 24.8296L125.744 25.2984L125.767 25.2897L125.614 24.947L125.458 24.6042C124.625 22.7716 123.564 20.8658 123.273 18.8781C122.845 15.9374 124.229 13.1477 127.606 12.7165C129.349 12.4923 131.287 13.2426 132.457 14.5538C131.824 9.99145 137.204 6.67567 141.077 10.082C142.911 11.6946 143.889 14.0532 145.054 16.1228C145.714 17.2913 146.388 18.4555 147.048 19.6283C147.216 19.4386 147.398 19.2489 147.589 19.0635C146.611 16.2867 145.851 13.4409 145.209 10.5779C144.599 7.87867 146.024 5.07599 148.964 4.31323C151.635 3.61429 154.98 5.1756 155.576 7.87047C155.995 9.76724 156.491 11.6433 157.037 13.5099C157.41 13.4237 157.779 13.3633 158.143 13.3202C158.174 12.9695 158.208 12.6169 158.246 12.2662L158.39 11.0189C158.708 8.16903 159.029 4.91577 160.601 2.49322C163.281 -1.64612 170.153 0.0699842 170.226 4.96389C170.267 7.49492 169.18 10.0044 168.802 12.5095C168.638 13.6004 168.542 14.7043 168.488 15.8081C169.22 12.143 170.226 8.52544 171.391 4.96389C171.528 4.53702 171.673 4.11015 171.815 3.68328ZM112.523 145.016C118.554 144.132 124.065 147.318 127.637 151.781C128.288 152.596 127.86 153.747 127.273 154.433C126.85 154.937 126.281 154.998 125.64 155.075C124.902 155.166 123.969 154.601 123.646 153.993C121.348 149.647 117.247 146.9 112.523 145.21C112.437 145.18 112.41 145.033 112.523 145.016ZM120.883 67.1427L121.065 66.9569C122.285 65.7578 120.357 63.9261 119.134 65.1278C117.847 66.3929 116.991 67.9296 116.168 69.4871C115.384 70.972 117.739 72.2837 118.526 70.7931L118.885 70.1156C119.447 69.0622 120.048 68.0214 120.883 67.1427ZM103.948 64.6816C105.677 64.4056 104.944 61.9121 103.222 62.1872C100.991 62.5433 98.7687 62.9482 96.5374 63.3048C94.8084 63.5807 95.5416 66.0743 97.2637 65.7996C99.4946 65.443 101.717 65.0381 103.948 64.6816ZM206.969 47.6581C205.299 47.1299 204.582 49.6277 206.243 50.1529C208.539 50.8786 210.817 51.6224 212.995 52.63C214.568 53.3579 215.954 51.1274 214.373 50.3961C211.982 49.2901 209.49 48.4549 206.969 47.6581ZM103.555 44.3052C101.923 43.6869 101.214 46.1882 102.829 46.8001L108.727 49.0349C110.358 49.6532 111.067 47.1523 109.453 46.5405L103.555 44.3052ZM227.565 38.231L227.349 38.1023C225.87 37.1942 224.5 39.4329 225.971 40.3362C226.834 40.8662 227.884 41.2257 228.675 41.8571L228.84 41.9967C230.117 43.1393 232.052 41.3137 230.771 40.1672C229.834 39.3292 228.648 38.8626 227.565 38.231Z" fill="black"/>
<path fill-rule="evenodd" clip-rule="evenodd" d="M264.711 365.084C267.918 367.319 270.616 370.709 272.782 374.277C263.74 373.285 254.715 372.142 245.71 370.841C246.888 370.047 248.078 369.27 249.296 368.537C253.736 365.9 259.752 361.628 264.711 365.084ZM114.498 393.253C112.842 392.57 112.201 389.907 111.555 388.381C109.531 383.595 107.683 378.728 105.761 373.895C113.059 371.703 120.157 369.27 127.717 368.101C135.847 366.845 144.096 366.541 152.301 366.823C168.92 367.395 185.384 370.257 201.723 373.327C218.042 376.393 234.361 379.339 250.795 381.651C266.896 383.916 283.047 385.573 299.229 387.028C302.373 387.311 307.615 388.503 310.144 385.895C312.145 383.83 312.21 380.021 309.705 378.342C308.145 377.295 305.884 377.28 304.102 377.038C301.857 376.734 299.603 376.531 297.344 376.373C296.424 376.309 295.504 376.25 294.583 376.191C301.972 373.255 309.689 371.653 317.699 372.1C318.153 375 320.193 377.985 321.31 380.377C323.261 384.553 324.781 388.78 325.78 393.322C327.866 402.814 327.957 412.666 327.368 422.347C326.826 430.419 325.663 439.348 319.656 445.065C315.108 449.393 308.691 450.996 302.738 451.5C295.819 452.086 288.793 451.46 281.932 450.483C272.309 449.111 262.641 447.298 253.207 444.867C234.935 440.159 217.421 432.668 201.262 422.513C193.382 417.56 185.863 411.989 177.875 407.225C169.736 402.369 161.074 398.603 151.98 396.264C141.802 393.647 131.163 392.53 120.702 393.176C118.887 393.288 116.264 393.982 114.498 393.253ZM102.704 388.394C103.773 392.052 104.591 396.229 106.874 399.303C109.135 402.349 112.547 403.424 116.08 403.695C120.341 404.021 124.652 403.812 128.923 403.979C137.681 404.322 146.319 405.822 154.691 408.572C162.494 411.136 169.737 415.134 176.714 419.57C183.165 423.672 189.428 428.076 195.881 432.166C194.164 432.996 192.466 433.894 190.758 434.675C187.177 436.314 183.573 437.896 179.954 439.438C172.816 442.479 165.648 445.446 158.407 448.202C143.806 453.76 128.965 458.616 113.945 462.752C106.782 464.725 99.5164 467.029 92.0741 467.357C85.4749 467.648 79.3622 465.681 74.0398 461.546C63.0005 452.967 54.2177 440.586 47.1179 428.373C42.8998 421.117 39.2187 413.492 36.1741 405.61C34.6341 401.623 33.2375 397.576 31.9806 393.48C31.3909 391.558 30.8317 389.624 30.3023 387.682C30.0694 386.828 29.8463 385.971 29.6252 385.113C40.9135 381.482 52.3359 378.205 64.0263 376.385C70.268 375.414 76.5928 374.922 82.9028 374.993C86.0348 375.029 89.1652 375.207 92.2807 375.548C93.9577 375.731 95.6279 375.967 97.2909 376.26C97.9781 376.38 98.6845 376.558 99.3929 376.689C100.475 380.597 101.566 384.503 102.704 388.394ZM336.047 372.853C336.655 371.556 336.912 370.28 337.13 368.868C337.296 367.791 337.737 366.274 337.351 364.876C336.918 363.309 335.739 361.908 334.893 360.572C333.958 359.096 333.025 357.618 332.092 356.14C330.227 353.184 328.366 350.225 326.508 347.264C318.92 335.172 311.383 323.046 303.835 310.927C297.136 300.173 290.551 289.322 283.648 278.711C277.746 269.639 271.312 260.716 263.233 253.659C253.018 244.738 240.855 240.535 228.15 237.256C226.762 235.737 224.909 234.908 222.927 235.077C220.128 231.73 217.904 229.393 216.895 225.138C216.412 223.1 216.564 217.373 214.68 216.167C212.443 214.734 211.275 216.631 210.658 218.768C208.594 225.918 210.963 235.531 216.415 242.693C214.118 251.06 211.073 262.95 205.641 269.653C199.824 276.831 191.779 279.065 183.099 279.212C166.547 279.493 150.012 273.008 137.386 261.77C133.549 258.355 129.985 254.54 126.76 250.483C124.341 247.439 121.481 242.742 119.588 239.192C119.588 237.808 118.039 236.361 133.817 235.243C149.595 234.125 150.792 211.353 151.143 208.254C151.428 205.737 152.64 201.831 150.958 199.779C150.244 198.907 148.779 198.767 147.873 199.359C146.166 200.476 145.605 203.334 145.069 205.274C144.317 207.992 141.86 224.862 137.203 226.815C135.023 227.73 132.522 227.747 130.216 227.916C127.368 228.125 124.515 228.279 121.678 228.628C120.632 228.757 119.491 229.114 118.459 229.124C117.787 229.131 117.094 228.787 116.445 228.545C114.255 227.729 112.066 228.341 109.809 228.661C89.8547 231.488 69.3089 237.939 52.2889 249.546C37.2874 259.777 26.7186 274.491 19.7447 291.694C12.6291 309.25 8.5506 328.235 5.13259 346.925C3.9876 353.187 2.9877 359.478 2.12864 365.79C1.29842 371.89 0.259911 378.126 0.0113139 384.287C-0.087107 386.725 0.465662 388.99 1.31624 391.217C2.27415 393.723 4.53825 394.711 6.70987 395.882C11.4769 398.452 16.5057 400.445 21.6868 401.857C24.852 407.926 27.5157 414.232 29.6564 420.777C28.8622 422.436 28.8457 424.913 28.6929 426.525C28.3141 430.539 28.1521 434.574 28.1181 438.607C28.0498 446.689 28.5109 454.763 28.8724 462.833C29.2389 471.018 30.4573 503.311 30.6558 507.254C30.8103 510.318 30.6024 514.603 32.1334 517.323C34.4862 521.503 40.293 521.362 42.9826 517.973C109.809 533.115 235.423 528.554 286.014 520.936C292.596 519.944 290.529 521.044 292.203 519.291C293.46 517.975 294.529 515.72 294.876 513.909C295.34 511.491 294.591 509.302 293.278 507.346C291.897 505.289 291.645 501.957 291.132 499.511C289.919 493.729 289.317 468.335 288.75 465.521C288.573 464.644 288.402 463.717 288.196 462.79C297.476 463.717 307.146 463.717 315.974 460.445C320.98 458.59 325.65 455.676 329.244 451.515C333.595 446.477 336.016 440.134 337.262 433.514C338.868 424.978 339.209 416.135 338.894 407.457C338.455 397.201 336.841 386.801 332.836 377.384C334.154 376.094 335.258 374.537 336.047 372.853Z" fill="black"/>
<path fill-rule="evenodd" clip-rule="evenodd" d="M182.416 170.82C187.989 164.684 197.376 164.257 205.151 165.791C210.141 166.776 214.999 168.416 220.067 169.024C222.434 169.308 224.827 169.393 227.211 169.352C229.553 169.311 231.898 168.863 234.232 168.947C234.591 168.959 234.727 169.405 234.416 169.587C231.214 171.45 226.901 172.048 223.119 172.412C223.131 172.677 223.148 172.936 223.186 173.155C223.29 173.74 223.384 174.322 223.46 174.911C223.631 176.239 223.824 177.563 224.015 178.889C224.393 181.499 224.512 184.19 225.176 186.755L225.292 187.181C225.446 187.72 225.481 188.206 225.429 188.644L225.583 188.578L226.069 188.355L226.387 188.212C227.55 187.702 228.659 187.33 230.025 187.454C231.066 187.548 231.939 188.22 231.945 189.273C231.971 193.997 225.252 195.516 221.409 196.42L220.282 196.683C215.39 197.813 210.395 198.804 205.363 199.041C197.289 199.421 188.215 197.311 182.933 191.106C178.005 185.316 177.101 176.67 182.416 170.82ZM219.084 190.666C218.237 183.555 209.012 183.164 206.359 187.674C205.181 181.387 187.762 187.13 189.124 188.38C194.287 193.117 202.121 193.543 208.856 192.667C212.287 192.221 215.719 191.494 219.084 190.666ZM208.847 172.027L206.528 171.71L205.614 171.591C199.865 170.862 193.4 170.485 188.673 173.977C186.947 175.252 185.976 176.914 185.613 178.7C190.086 178.072 194.575 177.593 199.077 177.194L200.306 177.087C203.123 176.847 205.938 176.593 208.753 176.327L210.753 176.135L212.752 175.939C213.456 175.869 218.198 175.639 219.089 175.793C219.184 175.034 219.308 173.392 219.51 172.653C216.141 172.762 212.787 172.525 209.438 172.103L208.847 172.027ZM219.522 140.24C222.959 142.219 228.195 146.834 224.498 151.74C220.146 156.067 213.881 151.106 210.793 148.863C207.93 147.124 204.713 151.596 207.37 153.626C229.681 169.276 238.735 140.757 221.26 137.913C219.336 137.599 218.622 139.627 219.522 140.24ZM225.672 148.577L225.837 148.492L225.893 148.46C225.99 148.401 225.928 148.407 225.709 148.479L225.544 148.535V148.646C225.586 148.621 225.631 148.603 225.672 148.577ZM181.659 130.994L181.658 130.897C181.664 128.147 183.355 121.869 187.533 121.869C190.143 121.869 191.727 126.142 192.002 130.546L192.011 130.726C192.132 133.464 191.339 139.449 187.533 139.449C183.686 139.449 181.698 133.78 181.659 130.994ZM243.169 130.131L243.169 130.034C243.163 127.285 241.473 121.007 237.295 121.007C234.75 121.007 233.18 125.068 232.849 129.354L232.826 129.684C232.661 132.329 233.403 138.587 237.295 138.587C241.141 138.587 243.129 132.918 243.169 130.131ZM184.042 103.123C187.452 102.632 191.967 103.565 193.557 106.849C194.265 108.313 193.426 109.931 191.641 110.012C187.326 110.208 183.456 109.298 179.669 111.956C178.039 113.1 176.669 114.685 175.519 116.265L175.083 116.866L174.723 117.362C173.942 118.449 173.203 119.631 173.318 120.943C173.352 121.332 172.933 121.7 172.535 121.685C170.053 121.588 169.786 118.64 170.112 116.869C170.719 113.583 172.398 110.498 174.725 108.013C177.169 105.403 180.395 103.648 184.042 103.123ZM231.004 107.111C233.355 105.679 236.363 105.129 239.117 105.34C244.548 105.754 253.659 110.128 252.459 116.413C252.089 118.351 249.244 119.374 247.567 118.298C245.765 117.142 245.326 115.346 243.984 113.835C242.914 112.628 241.557 111.755 240.105 111.011C238.673 110.277 237.016 109.833 235.391 109.671L235.121 109.646C234.143 109.567 229.204 109.588 229.929 111.335C230.071 111.677 229.534 111.948 229.287 111.689C227.773 110.102 229.488 108.035 231.004 107.111Z" fill="black"/>
</svg>
