<svg width="377" height="500" viewBox="0 0 377 500" fill="none" xmlns="http://www.w3.org/2000/svg">
<path fill-rule="evenodd" clip-rule="evenodd" d="M105.567 40.7737C107.707 38.536 110.443 36.8689 113.435 36.3361C110.7 37.6674 108.027 39.0551 105.567 40.7737ZM101.377 60.0683C100.998 58.3629 100.744 56.6411 100.664 54.9197C101.142 55.6282 101.906 56.1015 102.764 56.346C102.209 57.5551 101.738 58.8008 101.377 60.0683ZM244.539 86.8055C242.07 76.7863 230.548 57.5146 227.825 53.8053C224.868 44.6208 240.996 37.2553 232.225 30.0733C228.253 26.8327 223.005 25.6859 218.082 24.5367C183.993 16.5573 147.367 20.5816 115.751 35.2548C110.942 34.2684 105.932 36.1961 102.435 39.5819C86.005 55.6773 108.396 84.7181 113.292 102.863C121.692 123.096 104.388 126.5 106.244 143.618C107.686 152.462 116.876 154.8 124.632 156.136C125.875 156.42 127.536 156.462 127.937 157.743C129.194 165.219 133.502 172.343 139.285 177.178C138.779 178.638 139.166 180.411 140.949 181.694C157.108 193.398 177.482 199.255 197.636 198.202C221.654 196.947 234.074 183.53 237.072 180.075C253.643 158.262 251.663 129.482 248.283 103.486C245.928 85.3768 248.914 104.555 244.539 86.8055Z" fill="white"/>
<path fill-rule="evenodd" clip-rule="evenodd" d="M170.481 3.4349C171.236 1.13486 173.373 -0.248377 175.819 0.0371175C177.985 0.286422 180.304 2.38139 180.04 4.69349C179.99 5.13982 179.924 5.55801 179.846 5.95208L179.856 5.95559L179.866 5.9561L179.813 6.1089C179.652 6.84475 179.429 7.5042 179.099 8.12746C178.678 9.32171 178.274 10.52 177.874 11.7223C178.451 11.6982 179.041 11.7303 179.639 11.8389C180.258 10.2948 180.881 8.75474 181.5 7.20664C182.164 5.55399 182.63 3.43088 183.942 2.15219C185.621 0.519643 188.534 0.181875 190.58 1.34798C192.742 2.57842 193.514 4.76587 193.043 7.11014C192.804 8.30591 191.984 9.13808 190.97 9.66094L190.861 9.71578L190.081 11.5172C190.32 11.4167 190.568 11.3242 190.836 11.2478C191.257 11.1272 191.669 11.0508 192.074 11.0186C193.188 9.0523 194.413 7.14231 195.679 5.2685C197.136 3.11322 199.982 2.19642 202.371 3.55955C204.508 4.77793 205.655 7.97868 204.124 10.0817C202.961 11.678 201.859 13.3066 200.774 14.9512C200.96 14.9833 201.146 15.0236 201.323 15.0758C201.406 14.9673 201.492 14.8587 201.583 14.7501C202.767 13.3186 204.145 12.245 205.56 11.0548C206.884 9.93693 207.495 8.17974 209.236 7.33129C211.426 6.26572 214.067 6.77639 215.37 8.8995C218.167 13.4473 213.473 16.7687 210.469 19.5231C213.081 17.9348 215.799 16.4832 218.588 15.2286C220.156 14.5249 221.748 13.8454 223.366 13.2583C225.762 12.3898 227.701 12.6676 229.669 14.2837C230.548 15.0075 230.985 16.5881 230.581 17.6413C229.797 19.6598 228.56 20.8862 226.39 21.4693C224.863 21.8794 223.3 22.1569 221.773 22.5871C219.215 23.3029 216.732 24.1755 214.322 25.2652C214.496 25.3697 214.661 25.4823 214.813 25.611C216.612 25.044 218.444 24.5534 220.284 24.1352C223.335 23.4378 226.441 22.9666 229.561 22.6719L230.597 22.5779C234.337 22.228 238.834 21.5825 241.13 25.0721C241.885 26.2222 241.967 28.1201 241.13 29.2581C239.529 31.4455 237.937 31.8798 235.288 31.92C237.896 32.1894 240.499 32.5231 243.089 32.9132C244.875 33.1786 246.661 33.4794 248.439 33.8132L249.327 33.9828C251.493 34.405 253.911 34.6503 255.771 35.8727C259.831 38.5427 257.925 43.7419 253.428 44.2968C251.254 44.5622 248.84 43.6655 246.708 43.2473C244.637 42.8412 242.557 42.4833 240.47 42.1696C239.389 42.0048 238.308 41.86 237.223 41.7273C239.43 42.0369 241.621 42.4752 243.754 43.0945L244.346 43.2687C248.47 44.4936 254.035 46.4444 255.322 50.7385C256.101 53.3481 253.968 55.6241 251.386 55.7769C248.985 55.9176 246.984 54.5223 244.946 53.4929C243.461 52.745 241.951 52.1861 240.35 51.7076C238.696 51.213 237.009 50.8028 235.309 50.4691C236.745 51.2404 238.144 52.0881 239.487 53.0365L240.104 53.4809C243.673 56.073 249.116 60.086 247.859 64.9448C247.463 66.4769 245.709 67.9405 244.026 67.7837C239.645 67.3856 237.227 62.8378 233.923 60.4011C233.06 59.7657 232.116 59.1384 231.126 58.5272C236.134 64.3497 240.119 71.081 243.151 78.0333C249.815 93.3285 251.86 107.493 251.909 123.939L251.91 124.448C251.918 133.52 251.708 142.756 250.8 151.787C249.958 160.131 248.415 168.366 244.533 175.922C238.028 188.592 225.35 198.46 211.369 202.215C195.811 206.397 178.422 203.128 165.679 193.478C162.428 191.017 166.739 185.673 170.06 187.945C183.324 197.012 200.477 199.883 215.7 193.747C227.776 188.882 237.499 178.415 241.621 166.364C244.244 158.697 245.008 150.522 245.944 142.533L246.006 142C246.996 133.644 247.57 125.232 247.562 116.82C247.549 101.199 245.247 88.3393 238.197 74.1691C234.88 67.4942 230.577 61.3223 225.437 55.9055C223.877 56.2151 222.219 55.7809 220.643 55.616C219.838 55.5316 219.034 55.4511 218.229 55.3788C219.051 55.8967 219.857 56.4352 220.649 56.9862L221.688 57.7166C224.94 59.9862 229.065 62.5714 228.229 66.9594C228.003 68.1456 226.79 69.2353 225.614 69.5047C221.352 70.4939 218.423 66.4568 215.544 64.0602C213.039 61.9773 210.42 60.1115 207.751 58.2418C207.144 57.8195 206.534 57.3973 205.919 56.9791C206.496 57.6354 207.058 58.3019 207.606 58.9746L208.416 59.9755C210.868 62.9653 214.402 66.8514 212.218 70.7271C211.6 71.8208 210.279 72.5486 209.001 72.5245C204.603 72.436 202.854 67.5706 200.791 64.4985C199.017 61.8647 197.09 59.3837 195.098 56.9027C194.549 56.2232 193.996 55.5436 193.435 54.8641C184.198 55.3305 174.994 56.5207 165.951 58.4227C159.738 59.7295 153.628 61.4228 147.564 63.2761L147.06 63.4324C143.778 64.4623 140.396 65.7805 138.03 68.041C137.692 69.5985 137.951 71.241 138.274 72.7964L138.526 73.9869C139.564 78.9652 140.271 83.8514 139.742 88.9625C139.193 94.2341 137.564 98.9749 135.575 103.873C134.635 106.181 133.661 105.762 133.327 108.239C133.071 110.126 133.229 112.074 133.404 113.976L133.55 115.589C133.917 119.814 134.101 124.42 131.26 127.906C130.818 128.441 129.874 128.228 129.56 127.693C129.436 127.48 129.304 127.275 129.16 127.078C127.79 125.144 125.69 124.042 123.289 123.616C122.984 123.564 123.104 123.166 123.36 123.133C125.389 122.9 127.312 123.395 128.946 124.416C128.171 121.805 122.173 123.075 120.201 123.582L120.133 123.6C117.675 124.243 115.348 125.289 113.298 126.768C109.172 129.744 106.788 134.384 106.907 139.382C107.027 144.296 109.63 148.836 114.102 151.188C116.26 152.322 118.714 152.869 121.157 152.845C123.706 152.821 125.975 151.731 128.529 151.884C130.006 151.972 131.136 153.516 130.282 154.863C129.713 155.764 128.97 156.472 128.112 157.015C130.204 161.715 132.873 166.199 135.951 170.336C137.654 172.632 139.585 174.752 141.71 176.686C143.368 178.198 146.962 179.947 146.759 182.468C146.689 183.377 146.207 183.932 145.357 184.269C142.715 185.322 139.502 181.697 137.734 179.949L137.593 179.81C135.39 177.671 133.38 175.306 131.631 172.797C128.529 168.342 126.602 163.32 125.806 158.044C121.569 159.287 115.958 158.121 112.501 156.597C101.635 151.811 98.0827 137.549 104.688 128.051C105.967 126.214 107.567 124.641 109.391 123.371C108.991 123.158 108.615 122.884 108.281 122.538C106.432 120.624 105.125 118.127 103.828 115.825L103.673 115.55C102.521 113.523 101.435 111.465 100.417 109.375L100.038 108.589C97.7651 103.824 95.7725 101.741 94.1511 96.7312C92.5917 91.8979 91.3623 86.9721 90.5661 81.9619L90.3545 80.6357C89.894 77.7285 89.4585 74.6197 89.7946 71.668C87.4802 72.4039 85.1535 72.8583 82.8638 71.7525C81.3539 71.0247 80.5205 68.9015 81.0362 67.3776C81.4116 66.2557 82.0387 65.3751 82.8349 64.6835C82.3605 64.4503 81.9149 64.1527 81.523 63.823L81.1806 63.5339C79.7944 62.3593 79.6954 60.1276 80.537 58.6559C80.6195 58.5152 80.7021 58.3704 80.7804 58.2297C81.5808 56.8344 83.2351 55.9216 84.8688 55.9457C85.1328 55.9498 85.3969 55.9498 85.665 55.9457C84.9018 55.7809 84.1551 55.5275 83.4455 55.1013C80.2441 53.1833 80.6484 47.9841 84.5223 47.0673C86.1477 46.6853 87.9423 46.8421 89.7327 47.2522C89.6667 47.216 89.6007 47.1799 89.5347 47.1396C88.1816 46.3314 87.0471 44.7511 87.1749 43.1307C87.3152 41.3373 87.9093 40.0586 89.5347 39.1177C90.9456 38.3054 92.9424 38.229 94.345 39.1177C95.5621 39.8937 96.7543 40.7502 97.9012 41.671C96.7502 40.2918 95.7518 38.792 95.3475 37.1996C94.8483 35.2172 95.6817 33.0579 97.5134 32.0125C98.9738 31.1801 100.517 31.2726 101.895 31.916C101.82 30.8745 102.08 29.813 102.79 28.872C104.242 26.9423 106.882 25.8321 109.18 27.2395C109.481 27.4245 109.886 27.7421 110.278 28.1322C109.514 25.7638 110.203 23.2788 112.807 22.2092C114.395 21.5537 116.544 21.8835 117.922 23.0134C117.048 18.4012 124.032 15.0115 126.747 19.7764C127.363 20.8559 127.972 21.9925 128.517 23.1552L128.719 23.5924L128.739 23.5844L128.601 23.2647L128.459 22.945C127.704 21.2361 126.742 19.4588 126.478 17.6051C126.091 14.8627 127.345 12.2611 130.406 11.859C131.986 11.6499 133.743 12.3496 134.804 13.5724C134.23 9.31769 139.107 6.22551 142.617 9.40213C144.28 10.906 145.167 13.1055 146.223 15.0356C146.821 16.1253 147.432 17.211 148.03 18.3047C148.183 18.1278 148.348 17.9509 148.521 17.778C147.634 15.1884 146.945 12.5345 146.363 9.86455C145.81 7.34738 147.102 4.7337 149.767 4.02238C152.188 3.37056 155.221 4.82659 155.761 7.33974C156.141 9.1086 156.59 10.8582 157.085 12.5989C157.424 12.5184 157.758 12.4621 158.088 12.4219C158.115 12.0949 158.147 11.7661 158.181 11.439L158.311 10.2758C158.6 7.61816 158.891 4.58429 160.316 2.32509C162.746 -1.53511 168.975 0.0652649 169.041 4.62915C169.078 6.98951 168.092 9.32975 167.75 11.666C167.601 12.6833 167.515 13.7127 167.465 14.7421C168.129 11.3242 169.041 7.95054 170.097 4.62915C170.221 4.23107 170.353 3.83298 170.481 3.4349ZM116.734 135.237C122.2 134.413 127.196 137.384 130.435 141.546C131.025 142.306 130.637 143.379 130.105 144.019C129.721 144.489 129.205 144.546 128.624 144.618C127.955 144.702 127.11 144.176 126.817 143.609C124.733 139.555 121.016 136.994 116.734 135.418C116.656 135.39 116.631 135.253 116.734 135.237ZM124.312 62.615L124.477 62.4417C125.583 61.3235 123.835 59.6153 122.727 60.736C121.56 61.9158 120.784 63.3489 120.038 64.8013C119.327 66.1861 121.462 67.4093 122.176 66.0193L122.501 65.3875C123.011 64.405 123.555 63.4345 124.312 62.615ZM108.96 60.3198C110.528 60.0625 109.863 57.7371 108.302 57.9937C106.28 58.3258 104.266 58.7034 102.243 59.0359C100.676 59.2933 101.34 61.6186 102.901 61.3625C104.924 61.0299 106.938 60.6524 108.96 60.3198ZM202.348 44.4443C200.834 43.9518 200.184 46.2812 201.69 46.7709C203.772 47.4477 205.836 48.1413 207.81 49.081C209.237 49.7598 210.493 47.6797 209.06 46.9977C206.892 45.9663 204.633 45.1874 202.348 44.4443ZM108.604 41.3176C107.125 40.741 106.483 43.0736 107.946 43.6442L113.293 45.7283C114.772 46.3049 115.414 43.9727 113.951 43.4021L108.604 41.3176ZM221.018 35.6529L220.823 35.5329C219.482 34.6861 218.24 36.7738 219.573 37.6162C220.356 38.1105 221.307 38.4457 222.024 39.0345L222.174 39.1647C223.332 40.2303 225.085 38.5278 223.925 37.4586C223.075 36.6771 222 36.242 221.018 35.6529Z" fill="black"/>
<path fill-rule="evenodd" clip-rule="evenodd" d="M138.92 191.691C140.517 187.051 145.916 188.855 145.314 193.73C144.954 196.65 143.571 199.735 142.328 202.294C141.316 204.378 140.162 206.411 138.598 207.972C141.383 210.977 144.274 213.872 147.239 216.621C150.474 219.62 153.875 222.385 157.391 224.925C160.474 227.154 163.697 229.128 166.603 231.67C169.305 234.034 171.767 236.877 173.019 240.588C174.354 244.54 173.774 248.621 172.791 252.57L172.678 253.017C171.674 256.93 169.937 261.646 172.346 265.332C173.573 267.209 175.356 268.538 176.896 270.038C178.265 271.372 179.55 272.822 180.728 274.38C183.297 277.775 185.386 281.596 186.705 285.853L186.823 286.24C187.953 290.009 188.779 294.625 187.252 298.326C186.813 299.386 185.4 299.042 185.155 298.009C184.6 295.669 184.629 293.219 184.164 290.846C183.68 288.378 182.874 286.036 181.822 283.82C179.787 279.533 177.03 275.87 173.773 272.774L172.798 271.858C170.257 269.447 167.923 266.889 167.407 262.899C166.855 258.63 168.335 254.563 169.286 250.523C169.949 247.707 170.165 245.008 169.449 242.463C168.574 244.115 167.38 245.682 166.435 247.081C164.554 249.866 162.656 252.635 160.762 255.409C158.821 258.254 156.927 261.143 155.124 264.108C154.317 265.434 153.519 266.768 152.724 268.103C152.126 269.106 151.291 270.109 150.64 271.133C150.798 271.68 150.786 272.311 150.499 272.76C147.041 278.161 142.123 266.891 140.84 264.044C138.228 258.246 136.284 252.086 133.663 246.288C130.947 240.279 127.855 234.43 124.408 228.943C122.323 225.625 119.986 222.508 118.079 219.084C113.586 223.795 107.673 226.953 102.243 229.816C96.2757 232.962 90.0766 235.532 83.9588 238.262L82.1517 239.073C71.6106 243.83 60.8119 249.056 52.0502 257.504C41.7544 267.433 35.6635 281.271 31.1289 295.601C25.909 312.098 21.5905 329.04 17.5648 345.971C15.5048 354.634 13.5501 363.337 11.7125 372.067C10.0932 379.758 8.75095 387.525 6.87645 395.137C10.6781 394.982 15.0139 396.684 18.2597 397.175C33.052 399.414 47.6452 402.983 61.6109 409.161C63.3359 409.925 63.8351 411.917 63.4594 413.531C64.4542 413.207 65.4483 412.878 66.4432 412.555C65.3532 410.624 65.8734 407.172 65.9591 405.031L65.9644 404.884C66.0525 402.032 66.3201 399.177 66.4936 396.33C66.824 390.904 67.2542 385.517 67.8261 380.121L67.9721 378.772C68.6203 372.902 69.0994 366.997 69.8067 361.137L69.8903 360.466C69.5511 358.967 69.1563 357.486 68.7419 356.011C67.6375 352.084 66.0788 348.386 64.7128 344.582C64.5517 344.134 65.1035 343.877 65.3614 344.146C67.6748 346.552 69.5124 349.605 70.9886 352.797C71.0142 352.647 71.0368 352.496 71.0635 352.345L71.232 351.386C71.6474 349.048 72.1527 346.589 73.3931 344.692C73.5252 344.491 73.7864 344.449 73.9114 344.692C75.0986 347.015 75.2314 349.957 75.414 352.6C75.6206 355.59 75.6466 358.617 75.6101 361.616C75.539 367.475 75.1818 373.351 74.8972 379.201C74.618 384.949 74.0698 390.624 73.3633 396.317L73.229 397.384C72.8836 400.093 72.6008 402.836 72.1453 405.527L72.0166 406.259C71.773 407.594 71.6232 409.475 71.1384 411.038C83.6117 407.015 96.1042 403.084 108.62 399.223C117.666 396.431 126.722 393.682 135.774 390.914C136.251 389.919 136.846 388.99 137.588 388.159C140.034 385.42 143.275 384.199 146.247 386.306C146.489 386.478 146.509 386.916 146.247 387.082C145.678 387.442 145.107 387.811 144.547 388.196L149.982 386.494C154.044 385.221 158.156 383.63 162.314 382.742C169.972 378.372 178.21 375.209 186.277 372.083L187.228 371.711C191.359 370.083 195.632 368.26 199.9 367.357C203.024 366.696 206.692 367.494 207.949 371.195C209.539 372.407 211.036 373.831 212.48 375.232C213.524 376.245 214.525 377.321 215.543 378.369L215.731 378.559C216.563 379.394 217.222 379.953 217.426 381.282C217.531 381.968 217.154 382.896 216.422 382.805C214.182 382.528 212.361 379.526 210.842 377.733C209.668 376.347 208.485 374.915 207.414 373.392C206.789 373.785 205.933 373.714 205.536 372.844C203.475 368.331 197.828 371.458 194.704 372.528L190.229 374.06C187.991 374.827 185.754 375.598 183.521 376.382C177.385 378.536 171.278 380.948 165.085 382.927C165.639 383.631 165.563 384.884 164.51 385.36C159.663 387.559 154.345 388.697 149.309 390.206C146.13 391.159 142.952 392.118 139.776 393.083C139.231 394.103 138.839 395.258 138.674 396.601C138.068 401.541 139.237 407.241 140.376 412.018L140.548 412.731C141.484 416.573 142.861 421.282 145.727 423.707C146.427 424.299 147.318 424.71 148.216 424.804C153.827 421.464 159.438 418.125 165.052 414.792C166.092 414.175 167.053 415.011 167.286 416.005C169.266 415.629 171.241 415.037 173.04 414.331C176.062 413.145 178.422 410.881 181.256 409.315C186.739 406.287 192.338 410.007 197.246 412.835L198.378 413.478C200.579 414.713 205.159 417.085 206.215 413.708C207.237 410.44 204.007 406.948 201.921 405.477C199.434 403.724 196.539 402.785 193.729 402.004C192.124 401.557 190.5 401.193 188.866 400.927C187.013 400.625 185.098 400.671 183.314 399.976C182.427 399.631 182.291 398.002 183.314 397.733C186.061 397.011 189.339 397.799 192.206 398.605L193.704 399.032C196.592 399.851 199.508 400.88 202.139 402.514C204.052 403.703 206.071 405.509 207.39 407.72C208.535 406.49 209.961 406.532 211.446 406.988L212.252 407.247C213.583 407.674 214.661 407.967 215.957 407.672C216.13 406.582 216.305 405.493 216.493 404.403C218.338 393.69 220.362 383.019 222.596 372.404C226.448 354.096 230.905 335.988 235.93 318.066L236.434 316.274C237.593 312.175 238.526 307.709 240.395 303.943C242.162 300.382 244.993 298.331 248.357 297.245C252.175 296.012 256.186 295.367 260.08 294.534C260.949 294.349 261.82 294.173 262.689 293.99C261.955 292.456 261.406 290.715 260.912 289.379L260.825 289.147C259.764 286.349 258.811 283.501 257.89 280.638L257.201 278.485C255.539 273.301 253.823 268.203 251.486 263.354C249.026 258.252 245.762 254.08 241.693 250.628C233.398 243.588 223.4 239.997 215.354 232.473C215.024 232.165 215.447 231.638 215.782 231.833C221.214 234.989 227.079 237.135 232.729 239.705L233.844 240.213C238.31 242.26 242.846 244.489 246.712 247.803C251.022 251.499 254.416 256.089 256.967 261.547C259.482 266.927 261.09 272.949 262.864 278.696L263.338 280.227C264.054 282.523 264.793 284.812 265.64 287.047C266.312 288.82 267.567 290.846 268.137 292.872C269.697 292.559 271.257 292.245 272.819 291.944C306.645 285.414 340.849 281.577 375.13 280.454C376.471 280.41 377.164 281.89 376.967 283.243C373.677 305.735 370.753 328.305 367.546 350.814C366.146 360.638 364.717 370.455 363.256 380.267C362.515 385.238 361.66 390.19 360.958 395.168C360.392 399.189 359.981 403.241 359.009 407.168C358.138 410.689 356.8 414.085 354.603 416.772C352.234 419.668 348.929 421.069 345.601 421.732C337.155 423.413 328.49 424.099 319.975 425.219L274.638 431.182C275.301 438.145 275.35 445 275.046 452.044L274.873 455.889C274.731 458.982 274.562 462.08 274.178 465.141C273.696 468.981 272.177 472.232 269.939 475.1C267.885 477.734 265.388 479.982 262.96 482.135C260.44 484.371 257.835 486.529 254.872 487.912L254.487 488.089C251.887 489.262 247.011 491.08 243.457 490.415C243.921 493.106 244.82 496 244.023 498.662C243.654 499.899 242.256 500.516 241.399 499.464C239.702 497.379 239.569 494.624 239.167 491.904C238.749 489.074 238.388 486.233 238.068 483.385C237.448 477.879 236.966 472.323 236.819 466.771C236.668 461.068 236.726 455.358 236.992 449.662C237.129 446.737 237.298 443.814 237.619 440.907C237.756 439.668 237.896 438.428 238.056 437.191C238.114 436.74 238.179 436.291 238.249 435.844L234.179 436.374C227.94 437.18 221.697 437.907 215.414 438.02C214.67 438.033 214.097 437.642 213.723 437.071C213.324 437.822 212.63 438.359 211.636 438.354C202.861 438.317 194.689 434.999 186.708 431.089C182.685 429.117 178.725 426.983 174.695 425.029C170.935 423.204 166.914 421.902 163.245 419.847L153.601 425.696C153.53 425.983 153.44 426.255 153.343 426.483C152.715 427.965 151.477 428.769 150.213 429.374C148.999 429.956 147.743 430.138 146.518 429.99C139.205 434.422 131.889 438.849 124.569 443.266L117.247 447.679C102.659 456.461 88.1289 465.387 73.4492 473.963L72.3684 474.592C67.298 477.532 61.8534 480.512 56.2264 482.736C56.1263 484.383 56.1895 485.984 56.3089 487.727L56.3376 488.107C56.5053 490.167 56.8651 492.748 55.436 494.214C54.6926 494.977 53.3646 494.98 52.8591 493.83C51.9418 491.745 52.7654 488.457 53.056 486.192C53.1591 485.387 53.2848 484.558 53.4708 483.755C47.02 485.975 40.3738 487.052 33.8093 485.805C27.418 484.592 22.4679 479.937 18.4772 474.242C14.2656 468.233 11.2729 461.23 9.66711 453.723C7.83967 445.181 7.72035 436.359 7.76326 427.609C7.80881 418.291 8.10692 408.928 9.08707 399.673C8.01319 399.381 6.82225 399.128 5.73708 399.215C5.19957 400.21 4.15693 400.629 3.21479 400.499C1.16603 403.112 6.36266 405.782 8.02336 406.45C8.60001 406.683 8.53828 407.766 7.87317 407.733L7.45423 407.71C4.88814 407.552 2.23703 407.046 0.728268 404.288C-0.480742 402.078 -0.117512 399.46 1.32374 397.658C2.27567 387.251 4.5514 377.117 6.66943 366.965C8.74793 357.001 11.0594 347.1 13.5094 337.25L14.6078 332.841C18.4653 317.396 22.4974 301.826 27.8185 286.995C30.4755 279.589 33.5364 272.32 37.6855 265.862C41.5531 259.843 46.1192 254.692 51.3678 250.293C61.1524 242.091 72.6337 237.135 83.9145 232.414L84.4195 232.202C90.2654 229.757 96.097 227.283 101.876 224.634C106.988 222.291 111.884 219.321 116.971 216.943C116.806 216.596 116.646 216.245 116.493 215.89L116.399 215.982C116.383 215.997 116.366 216.011 116.349 216.024C115.838 216.434 115.084 216.233 114.663 215.773C113.472 214.474 113.875 213.032 114.67 211.686L114.773 211.514C115.745 209.94 116.612 208.276 117.509 206.645L118.071 205.624C119.576 202.899 121.159 200.156 123.166 197.904C124.096 196.86 125.114 196.079 126.192 195.497C126.1 195.272 126.908 194.811 127.138 195.043C130.554 193.597 134.485 193.9 138.21 194.299M272.445 431.47L267.695 432.095C262.469 432.782 257.241 433.447 252.012 434.106L240.655 435.533C240.626 436.281 240.547 437.013 240.533 437.579C240.459 440.493 240.404 443.409 240.351 446.325C240.246 452.169 240.361 458.019 240.694 463.851C241.017 469.503 241.441 475.156 242.101 480.769L242.237 481.891L242.315 482.482C242.854 482.542 243.383 482.838 243.823 483.446C244.783 484.772 248.262 483.483 249.62 482.924C251.854 482.005 253.958 480.452 255.899 478.895C257.795 477.374 259.502 475.601 261.142 473.733L262.484 472.199C263.819 470.665 265.155 469.031 265.973 467.101C267.083 464.485 267.226 461.273 267.551 458.423C267.952 454.918 268.429 451.413 268.933 447.925M134.547 394.677L134.054 394.826C116.156 400.325 98.284 405.987 80.3306 411.243C71.446 413.844 62.5192 416.257 53.6236 418.808L52.1834 419.225C45.1657 421.276 38.0638 423.744 32.6899 429.629C32.4915 429.846 32.2036 429.513 32.3903 429.283C38.182 422.154 46.4192 419.136 54.3282 416.52C55.7902 416.037 57.254 415.564 58.7163 415.083C47.9602 410.65 37.0343 406.793 25.8563 404.042C22.9779 403.333 20.066 402.813 17.1899 402.102C15.1841 401.605 13.2252 400.888 11.2406 400.293L9.67954 399.839L9.65881 405.544C9.63283 413.624 9.64523 421.697 10.0017 429.775L10.0692 431.272C10.4852 440.262 11.1344 449.439 13.8938 457.917C16.136 464.805 19.71 471.295 24.3838 476.312C26.7487 478.851 29.2913 480.827 32.4343 481.803C35.3526 482.709 38.4101 482.815 41.41 482.573C55.7996 481.413 68.6086 472.374 81.1083 464.891C101.553 452.652 122.001 440.418 142.467 428.226C141.913 427.788 141.392 427.284 140.918 426.718C138.174 423.441 136.726 418.955 135.776 414.61C134.764 409.985 134.158 405.029 134.088 400.254M160.588 432.951C160.769 432.838 160.978 432.979 160.986 433.215C161.049 435.022 160.185 436.805 159.54 438.433L159.472 438.607C158.688 440.623 157.829 442.613 156.941 444.572C155.166 448.485 153.322 452.356 151.397 456.172C147.526 463.85 143.225 471.204 138.14 477.889C136.992 479.399 135.103 477.463 135.84 475.837C139.393 467.999 143.536 460.598 147.8 453.262C149.934 449.588 152.067 445.912 154.223 442.255C155.122 440.729 156.033 439.209 156.968 437.712L157.533 436.816M372.863 284.944C354.902 285.571 336.963 286.926 319.087 289.048C302.463 291.022 285.9 293.649 269.43 296.925C265.99 297.609 262.554 298.321 259.122 299.061L257.064 299.508C253.632 300.261 249.439 300.571 246.384 302.691C243.162 304.926 242.291 309.596 241.219 313.448C239.959 317.978 238.731 322.521 237.536 327.074C232.79 345.154 228.455 363.391 224.588 381.749C222.668 390.861 220.965 400.024 219.17 409.169C217.576 417.295 215.816 425.328 213.979 433.372C214.205 433.169 214.483 433.014 214.818 432.931C223.945 430.686 233.262 429.71 242.525 428.47L243.422 428.349C253.004 427.046 262.587 425.752 272.176 424.506L335.66 416.251C339.404 415.764 343.415 415.698 347.058 414.537C353.253 412.561 354.705 404.553 355.745 398.176L355.776 397.983C358.91 378.714 361.404 359.279 364.326 339.961M215.456 410.974C212.991 410.786 209.618 408.176 207.748 408.363C208.729 410.267 209.172 412.439 208.606 414.759C207.032 421.214 199.912 417.874 196.482 415.902C193.67 414.285 190.954 412.305 187.841 411.548C184.314 410.69 181.925 412.312 178.945 414.181C176.498 415.716 173.832 416.819 171.091 417.389C169.634 417.693 168.25 417.725 166.868 417.607C166.785 417.685 166.691 417.758 166.584 417.823L165.853 418.266C169.158 418.441 172.525 419.62 175.601 420.7C178.788 421.819 181.917 423.167 185.03 424.546L188.092 425.907C195.644 429.251 203.462 432.426 211.636 432.398C212.224 432.397 212.705 432.585 213.084 432.892M201.665 390.747C204.1 390.403 206.348 390.772 208.294 392.605C210.64 394.815 212.216 398.48 215.59 398.721C216.573 398.791 216.802 400.39 215.824 400.724C213.313 401.584 211.28 400.013 209.57 397.974L208.419 396.584C206.729 394.56 205.17 392.995 202.301 393.116C199.229 393.246 196.151 394.067 193.099 394.484C189.641 394.957 186.184 395.36 182.716 395.708C182.555 395.724 182.527 395.43 182.678 395.387L186.563 394.269M199.315 379.237L199.717 379.191C203.253 378.794 206.486 378.779 209.644 380.978L210.25 381.401C213.097 383.402 216.196 385.759 217.976 388.999C218.268 389.529 217.786 390.153 217.299 390.018C213.877 389.068 211.375 386.166 208.498 383.993C205.268 381.555 201.932 381.957 198.25 382.336C194.684 382.703 191.121 383.207 187.591 383.894C184.273 384.539 180.946 385.557 177.595 385.882L177.596 385.874C177.213 385.873 176.995 385.209 177.385 384.983C180.785 383.02 184.724 382.091 188.423 381.194M306.728 338.829C306.386 336.939 308.397 336.063 309.329 337.562L309.527 337.878C311.541 341.068 314.452 345.07 314.304 349.126C316.074 349.171 317.909 350.414 318.599 352.261C318.917 353.115 319.025 354.128 318.955 355.176C320.564 355.32 322.318 356.541 323.302 357.73C324.932 359.702 325.061 362.487 323.891 364.79C321.341 369.811 315.771 371.637 311.068 372.045L310.901 372.059C306.044 372.447 299.045 372.342 295.714 367.524C292.502 362.876 296.052 359.113 299.693 357.07C298.746 356.069 298.255 354.634 298.716 353.121C299.527 350.461 302.388 349.434 304.004 347.585C305.975 345.331 307.277 342.238 306.758 339.006M309.397 342.917C308.861 345.608 307.546 348.07 305.713 350.02C305.012 350.766 304.245 351.43 303.431 352.001L303.333 352.067C302.61 352.536 300.833 353.415 300.97 354.468C301.111 355.55 304.005 357.243 304.794 357.244C304.974 357.244 305.076 357.568 304.892 357.662C303.462 358.392 302.213 358.705 300.815 357.934C299.881 359.037 298.973 360.178 298.074 361.309C296.485 363.31 297.029 365.424 298.907 366.914C301.925 369.309 306.513 369.25 310.034 369.076C313.578 368.901 317.367 367.987 320.135 365.258L320.256 365.136C321.76 363.589 323.135 360.967 320.83 359.477C319.928 358.893 318.953 358.928 318.096 358.644C317.295 360.461 315.994 361.916 314.407 362.197C313.125 362.424 312.242 360.56 313.408 359.669L313.67 359.48C315.135 358.399 316.385 356.734 316.352 354.566C316.33 353.06 314.512 351.159 313.327 352.573L313.273 352.641C312.282 353.933 310.536 352.305 311.188 350.874L311.219 350.809M78.2405 268.068C78.2361 267.744 78.6294 267.623 78.7668 267.903C81.0674 272.583 82.27 278.32 83.4956 283.476C84.7791 288.877 85.8153 294.333 86.7462 299.829C88.6316 310.958 89.6362 322.023 89.7044 333.365C89.7138 334.985 87.432 335.415 87.2088 333.756C85.7269 322.723 84.3071 311.678 82.8139 300.648C82.0626 295.1 81.1882 289.574 80.3515 284.043M101.016 276.22C100.847 275.574 101.659 275.358 101.867 275.948C106.484 289.052 108.047 303.903 105.083 317.727C104.629 319.842 101.951 318.926 102.293 316.838M160.57 264.576C160.546 264.093 161.089 264.017 161.293 264.349C163.481 267.913 164.388 272.686 168.227 274.528C170.143 275.448 172.299 275.288 173.992 276.841C175.124 277.88 175.992 279.52 175.143 281.093C174.869 281.601 174.101 281.856 173.73 281.304C173.187 280.499 172.9 279.535 172.162 278.932C171.122 278.081 169.72 278.029 168.527 277.629C166.985 277.112 165.625 276.207 164.512 274.863M197.117 205.133C197.343 205 197.559 205.085 197.703 205.31C197.909 205.631 197.884 205.944 197.632 206.164C197.969 206.96 198.366 208.954 198.423 209.244C198.654 210.421 198.899 211.591 199.155 212.76C199.672 215.118 200.125 217.494 200.643 219.852C201.192 222.352 201.846 224.825 202.573 227.263C202.62 227.421 202.672 227.582 202.726 227.745L202.809 227.992L202.829 227.955C202.977 227.685 203.285 227.874 203.248 228.159C203.215 228.419 203.169 228.678 203.131 228.938L203.207 229.172C203.683 230.653 204.009 232.213 203.135 233.52C202.809 234.008 202.449 234.298 202.001 234.384C201.283 237.121 200.382 239.808 199.417 242.388L199.135 243.141C197.715 246.906 196.202 250.621 193.943 253.826C191.476 257.326 188.082 259.715 185.933 263.549C184.934 265.333 184.238 267.208 183.673 269.222L183.461 269.987C183.06 271.411 182.598 272.792 181.442 273.628C181.073 273.894 180.521 273.809 180.223 273.446C177.853 270.547 180.334 265.134 181.764 262.327C183.75 258.424 186.626 255.927 189.505 252.982C192.608 249.808 194.588 245.562 196.502 241.38C197.675 238.817 198.808 236.199 200 233.625C198.754 232.353 198.356 229.824 197.934 228.067L197.895 227.91C197.198 225.096 196.644 222.208 196.294 219.308C195.957 216.52 195.816 213.772 195.905 210.968L195.931 210.254M201.748 218.402C201.473 217.966 201.929 217.472 202.306 217.563C204.602 218.112 206.846 219.719 208.906 221.018L209.126 221.156C210.77 222.181 212.425 223.437 213.289 225.429C214.228 227.594 214.15 230.088 214.022 232.44L214.01 232.66C213.853 235.482 213.828 238.414 213.312 241.184C213.047 242.602 211.937 243.002 210.987 242.667C209.857 246.792 206.683 249.832 204.364 253.087C201.408 257.237 201.964 262.841 202.273 267.839C202.398 269.863 200.221 270.438 199.1 269.358L196.516 266.877C196.085 266.462 195.655 266.047 195.227 265.631C194.86 265.274 194.496 264.914 194.135 264.549L193.596 263.999C193.357 263.752 192.303 262.39 191.995 262.334C191.248 262.196 189.474 264.472 188.867 265.185L188.79 265.274C187.647 266.57 186.615 267.964 185.653 269.442C185.476 269.714 185.13 269.489 185.257 269.175C186.118 267.04 187.12 265 188.31 263.09L188.551 262.71C189.342 261.476 190.405 259.298 191.802 258.934C193.508 258.49 195.212 260.468 196.453 261.566L196.531 261.635C197.122 262.147 197.706 262.668 198.288 263.193C198.228 259.472 198.634 255.711 200.296 252.504C201.468 250.242 203.223 248.567 204.725 246.624C206.398 244.459 207.271 241.799 208.785 239.545C208.98 239.255 209.249 239.099 209.54 239.049C209.598 237.237 209.829 235.407 210.007 233.615L210.059 233.078C210.239 231.131 210.665 228.752 209.84 226.928C209.061 225.205 207.274 223.989 205.95 222.82L204.87 221.851M127.252 197.809C126.561 198.271 125.915 198.846 125.329 199.565C123.484 201.827 122.165 204.643 120.882 207.352C120.191 208.811 119.524 210.286 118.828 211.741C118.525 212.374 118.213 213.001 117.898 213.626C117.752 213.914 117.319 214.487 117.105 214.84C117.343 215.226 117.59 215.606 117.841 215.983C117.937 216.126 124.555 224.461 126.861 227.723C130.393 232.72 133.551 237.998 136.25 243.647C138.893 249.179 140.905 255.036 143.354 260.675C144.579 263.498 145.948 266.302 147.693 268.745C147.76 268.84 147.831 268.93 147.9 269.024C148.566 266.945 150.272 264.718 151.11 263.439L151.188 263.318C153.089 260.356 155.096 257.483 157.146 254.659C159.019 252.08 160.94 249.557 162.907 247.076L163.647 246.147C165.017 244.436 166.758 241.874 168.764 240.651C168.55 240.208 168.301 239.77 168.015 239.337C166.135 236.497 163.478 234.436 160.856 232.576L159.155 231.38C152.746 226.864 146.437 222.139 140.872 216.271C137.928 213.166 135.025 209.914 132.551 206.292L131.676 205.012M137.946 195.574C134.945 195.865 131.704 195.796 128.93 196.927C131.396 199.622 133.74 202.532 136.148 205.273C136.362 203.419 136.8 201.588 137.171 199.781" fill="black"/>
<path fill-rule="evenodd" clip-rule="evenodd" d="M181.331 155.997C186.865 150.569 196.188 150.191 203.91 151.548C208.865 152.419 213.69 153.87 218.723 154.408C221.074 154.659 223.45 154.734 225.818 154.697C228.144 154.661 230.473 154.266 232.791 154.339C233.147 154.35 233.282 154.745 232.973 154.906C229.794 156.554 225.51 157.082 221.754 157.405C221.766 157.639 221.783 157.868 221.821 158.062C221.924 158.58 222.017 159.094 222.093 159.615C222.263 160.79 222.454 161.962 222.644 163.135C223.019 165.443 223.137 167.824 223.797 170.093L223.912 170.47C224.065 170.947 224.1 171.377 224.049 171.764L224.201 171.706L224.684 171.508L225 171.383C226.155 170.931 227.256 170.602 228.613 170.712C229.646 170.795 230.514 171.39 230.52 172.321C230.546 176.499 223.873 177.843 220.056 178.643L218.936 178.876C214.078 179.876 209.117 180.752 204.12 180.962C196.101 181.298 187.09 179.431 181.844 173.942C176.95 168.821 176.053 161.172 181.331 155.997ZM217.747 173.553C216.906 167.262 207.745 166.916 205.109 170.906C203.94 165.345 186.64 170.425 187.993 171.531C193.12 175.721 200.901 176.098 207.59 175.323C210.996 174.929 214.406 174.286 217.747 173.553ZM207.58 157.064L205.277 156.784L204.37 156.679C198.66 156.033 192.239 155.7 187.545 158.789C185.831 159.917 184.866 161.388 184.506 162.968C188.948 162.412 193.406 161.988 197.878 161.635L199.097 161.541C201.895 161.328 204.692 161.104 207.487 160.868L209.473 160.699L211.459 160.525C212.157 160.463 216.867 160.259 217.752 160.396C217.846 159.725 217.97 158.272 218.17 157.618C214.824 157.714 211.493 157.505 208.167 157.131L207.58 157.064ZM218.182 128.944C221.595 130.695 226.796 134.777 223.124 139.118C218.802 142.945 212.579 138.557 209.513 136.572C206.67 135.034 203.475 138.99 206.113 140.786C228.271 154.63 237.263 129.402 219.908 126.885C217.997 126.608 217.288 128.402 218.182 128.944ZM224.29 136.32L224.454 136.244L224.509 136.216C224.605 136.164 224.544 136.169 224.326 136.233L224.163 136.283V136.38C224.205 136.358 224.249 136.342 224.29 136.32ZM180.579 120.764L180.578 120.679C180.584 118.246 182.263 112.693 186.412 112.693C189.004 112.693 190.578 116.472 190.851 120.368L190.86 120.527C190.98 122.95 190.193 128.244 186.412 128.244C182.592 128.244 180.618 123.23 180.579 120.764ZM241.666 120.002L241.667 119.916C241.66 117.483 239.982 111.93 235.833 111.93C233.305 111.93 231.746 115.523 231.417 119.314L231.394 119.606C231.231 121.946 231.967 127.482 235.833 127.482C239.653 127.482 241.627 122.467 241.666 120.002ZM182.946 96.1085C186.332 95.674 190.816 96.4995 192.395 99.4053C193.098 100.7 192.265 102.131 190.492 102.203C186.207 102.376 182.364 101.571 178.602 103.923C176.984 104.935 175.623 106.337 174.481 107.735L174.049 108.267L173.691 108.705C172.915 109.667 172.181 110.713 172.296 111.873C172.329 112.217 171.913 112.543 171.518 112.529C169.053 112.444 168.787 109.836 169.111 108.269C169.714 105.362 171.382 102.633 173.693 100.434C176.12 98.1259 179.324 96.5735 182.946 96.1085ZM229.585 99.637C231.92 98.3702 234.907 97.8835 237.642 98.07C243.036 98.4366 252.084 102.306 250.893 107.865C250.526 109.58 247.7 110.485 246.035 109.533C244.245 108.511 243.809 106.921 242.476 105.585C241.413 104.517 240.066 103.745 238.623 103.087C237.201 102.438 235.556 102.044 233.942 101.901L233.674 101.879C232.702 101.81 227.797 101.828 228.517 103.374C228.658 103.676 228.125 103.916 227.88 103.687C226.376 102.283 228.079 100.454 229.585 99.637Z" fill="black"/>
</svg>
