<svg width="335" height="434" viewBox="0 0 335 434" fill="none" xmlns="http://www.w3.org/2000/svg">
<path fill-rule="evenodd" clip-rule="evenodd" d="M68.8471 36.5761C70.7948 34.5688 73.2858 33.0732 76.009 32.5953C73.5198 33.7896 71.0866 35.0344 68.8471 36.5761ZM65.0323 53.8845C64.6879 52.3547 64.4565 50.8102 64.3837 49.2659C64.8189 49.9015 65.5141 50.3261 66.2949 50.5454C65.7905 51.63 65.3616 52.7475 65.0323 53.8845ZM195.357 77.8694C193.109 68.8815 182.621 51.5937 180.142 48.2662C177.45 40.0272 192.132 33.4199 184.147 26.9772C180.532 24.0703 175.754 23.0415 171.272 22.0106C140.24 14.8526 106.899 18.4626 78.1181 31.6254C73.7402 30.7405 69.1791 32.4698 65.9955 35.507C51.0391 49.9455 71.4219 75.9968 75.879 92.2743C83.5261 110.424 67.7738 113.477 69.463 128.834C70.7756 136.767 79.1418 138.864 86.2019 140.063C87.3334 140.317 88.8462 140.356 89.2112 141.505C90.3551 148.211 94.2767 154.601 99.5416 158.938C99.0812 160.249 99.4327 161.839 101.056 162.99C115.766 173.489 134.313 178.743 152.66 177.799C174.524 176.673 185.831 164.637 188.559 161.537C203.645 141.97 201.842 116.152 198.765 92.8327C196.621 76.5878 199.34 93.7913 195.357 77.8694Z" fill="white"/>
<path fill-rule="evenodd" clip-rule="evenodd" d="M143.329 3.08131C144.016 1.01804 145.961 -0.222809 148.188 0.0332966C150.16 0.256938 152.271 2.13624 152.03 4.21034C151.985 4.61072 151.925 4.98586 151.854 5.33936L151.863 5.34252L151.873 5.34297L151.824 5.48004C151.677 6.14014 151.474 6.73171 151.174 7.29081C150.791 8.36212 150.423 9.43705 150.059 10.5156C150.584 10.4939 151.121 10.5228 151.666 10.6202C152.229 9.23505 152.796 7.85352 153.36 6.46478C153.964 4.98226 154.389 3.0777 155.583 1.93064C157.112 0.46615 159.763 0.163153 161.626 1.20922C163.594 2.31299 164.296 4.27526 163.868 6.37821C163.65 7.45089 162.904 8.1974 161.981 8.66643L161.881 8.71562L161.171 10.3316C161.389 10.2414 161.614 10.1585 161.859 10.0899C162.242 9.98172 162.617 9.91318 162.985 9.88433C163.999 8.12045 165.115 6.40707 166.268 4.72615C167.593 2.79274 170.185 1.97032 172.359 3.19313C174.304 4.28608 175.349 7.15735 173.955 9.04387C172.896 10.4759 171.893 11.9368 170.906 13.4121C171.075 13.4409 171.244 13.477 171.405 13.5239C171.48 13.4265 171.559 13.3291 171.642 13.2317C172.72 11.9476 173.974 10.9845 175.262 9.91679C176.468 8.91401 177.023 7.3377 178.608 6.5766C180.603 5.62072 183.006 6.07882 184.193 7.98338C186.739 12.063 182.465 15.0425 179.731 17.5134C182.108 16.0886 184.583 14.7864 187.122 13.661C188.549 13.0297 189.999 12.4201 191.471 11.8935C193.653 11.1144 195.418 11.3636 197.21 12.8133C198.009 13.4626 198.408 14.8805 198.04 15.8252C197.326 17.636 196.199 18.7362 194.224 19.2592C192.834 19.6271 191.411 19.876 190.021 20.262C187.693 20.9041 185.432 21.6868 183.239 22.6643C183.397 22.7581 183.547 22.8591 183.686 22.9745C185.323 22.4659 186.991 22.0259 188.666 21.6507C191.444 21.0251 194.271 20.6024 197.111 20.338L198.054 20.2537C201.459 19.9399 205.553 19.3607 207.642 22.4912C208.33 23.5228 208.405 25.2254 207.642 26.2462C206.185 28.2085 204.736 28.598 202.325 28.6341C204.698 28.8758 207.068 29.1752 209.426 29.5251C211.052 29.7631 212.678 30.033 214.296 30.3324L215.105 30.4846C217.076 30.8633 219.277 31.0833 220.971 32.1799C224.666 34.575 222.931 39.239 218.838 39.7368C216.859 39.9749 214.662 39.1705 212.72 38.7954C210.835 38.431 208.942 38.11 207.042 37.8286C206.058 37.6808 205.074 37.5509 204.086 37.4319C206.095 37.7096 208.089 38.1028 210.031 38.6583L210.57 38.8146C214.324 39.9134 219.391 41.6633 220.562 45.5154C221.271 47.8564 219.33 49.898 216.979 50.0351C214.793 50.1614 212.972 48.9097 211.116 47.9863C209.764 47.3154 208.39 46.814 206.933 46.3847C205.427 45.941 203.891 45.5731 202.343 45.2737C203.651 45.9656 204.924 46.7261 206.147 47.5768L206.709 47.9755C209.958 50.3008 214.912 53.9007 213.768 58.2593C213.407 59.6337 211.811 60.9466 210.279 60.806C206.29 60.4489 204.09 56.3692 201.082 54.1833C200.297 53.6134 199.437 53.0507 198.535 52.5024C203.094 57.7255 206.722 63.7638 209.483 70.0005C215.549 83.7212 217.41 96.4277 217.455 111.18L217.456 111.637C217.463 119.775 217.272 128.061 216.445 136.162C215.679 143.647 214.275 151.034 210.741 157.812C204.818 169.178 193.277 178.03 180.55 181.399C166.388 185.15 150.558 182.218 138.957 173.561C135.998 171.353 139.922 166.56 142.946 168.597C155.02 176.731 170.635 179.307 184.493 173.802C195.486 169.438 204.338 160.049 208.089 149.238C210.477 142.361 211.173 135.027 212.024 127.86L212.082 127.382C212.983 119.887 213.505 112.341 213.497 104.795C213.486 90.7811 211.39 79.2455 204.972 66.5341C201.953 60.5463 198.036 55.0097 193.356 50.1505C191.937 50.4283 190.427 50.0387 188.992 49.8908C188.26 49.8151 187.528 49.7429 186.795 49.678C187.544 50.1426 188.277 50.6257 188.998 51.12L189.944 51.7751C192.904 53.8112 196.66 56.1303 195.899 60.0665C195.692 61.1306 194.588 62.1081 193.518 62.3498C189.638 63.2372 186.972 59.6156 184.351 57.4658C182.071 55.5973 179.686 53.9236 177.256 52.2463C176.704 51.8675 176.148 51.4888 175.589 51.1136C176.115 51.7023 176.626 52.3002 177.125 52.9037L177.862 53.8015C180.094 56.4836 183.311 59.9697 181.324 63.4464C180.76 64.4275 179.558 65.0804 178.394 65.0588C174.391 64.9794 172.798 60.6148 170.921 57.859C169.306 55.4963 167.552 53.2707 165.738 51.0451C165.239 50.4355 164.735 49.8259 164.225 49.2163C155.816 49.6347 147.437 50.7024 139.205 52.4086C133.549 53.5809 127.987 55.0999 122.467 56.7624L122.008 56.9026C119.02 57.8265 115.942 59.009 113.788 61.0368C113.48 62.4339 113.716 63.9074 114.01 65.3026L114.24 66.3706C115.184 70.8365 115.828 75.2196 115.346 79.8046C114.847 84.5336 113.363 88.7864 111.553 93.1798C110.697 95.2503 109.81 94.8752 109.506 97.0971C109.273 98.7896 109.417 100.537 109.577 102.243L109.71 103.69C110.043 107.48 110.211 111.612 107.625 114.74C107.223 115.219 106.363 115.028 106.077 114.548C105.965 114.357 105.845 114.173 105.713 113.996C104.466 112.261 102.555 111.273 100.369 110.891C100.091 110.844 100.2 110.487 100.433 110.458C102.281 110.249 104.031 110.692 105.518 111.609C104.813 109.266 99.3527 110.405 97.5578 110.861L97.496 110.876C95.2577 111.453 93.1396 112.391 91.2731 113.719C87.5176 116.388 85.3468 120.551 85.4558 125.034C85.5647 129.442 87.9344 133.515 92.0054 135.625C93.9696 136.642 96.2041 137.133 98.4274 137.111C100.748 137.089 102.814 136.112 105.139 136.249C106.483 136.328 107.512 137.713 106.735 138.922C106.216 139.73 105.54 140.364 104.759 140.851C106.663 145.068 109.093 149.09 111.895 152.802C113.446 154.861 115.203 156.762 117.138 158.497C118.647 159.854 121.918 161.423 121.734 163.684C121.67 164.5 121.231 164.997 120.457 165.3C118.052 166.245 115.127 162.993 113.519 161.425L113.39 161.3C111.384 159.381 109.555 157.26 107.963 155.009C105.139 151.013 103.385 146.507 102.66 141.775C98.803 142.889 93.6954 141.843 90.5483 140.476C80.6562 136.184 77.4226 123.389 83.4353 114.869C84.5995 113.221 86.0566 111.811 87.7166 110.671C87.3523 110.48 87.0105 110.234 86.7064 109.924C85.0236 108.207 83.8339 105.967 82.6531 103.902L82.5114 103.655C81.4632 101.837 80.4743 99.9904 79.5474 98.1154L79.2028 97.411C77.1335 93.1365 75.3195 91.268 73.8436 86.7736C72.424 82.4378 71.3049 78.0191 70.58 73.5247L70.3874 72.335C69.9682 69.7271 69.5718 66.9383 69.8777 64.2904C67.7709 64.9505 65.6528 65.3581 63.5684 64.3662C62.1939 63.7133 61.4353 61.8087 61.9047 60.4416C62.2465 59.4353 62.8173 58.6453 63.5421 58.0249C63.1103 57.8157 62.7047 57.5487 62.3479 57.253L62.0362 56.9936C60.7743 55.94 60.6842 53.938 61.4503 52.6178C61.5254 52.4916 61.6005 52.3617 61.6719 52.2355C62.4005 50.9838 63.9064 50.165 65.3936 50.1866C65.634 50.1902 65.8743 50.1902 66.1184 50.1866C65.4237 50.0387 64.7439 49.8115 64.098 49.4291C61.1837 47.7085 61.5517 43.0445 65.0782 42.2221C66.5578 41.8794 68.1915 42.0201 69.8214 42.388C69.7613 42.3556 69.7012 42.3231 69.6411 42.287C68.4093 41.562 67.3766 40.1444 67.493 38.6907C67.6207 37.082 68.1615 35.9349 69.6411 35.0908C70.9255 34.3622 72.7432 34.2937 74.0201 35.0908C75.128 35.787 76.2134 36.5553 77.2574 37.3814C76.2096 36.1441 75.3008 34.7987 74.9327 33.3703C74.4783 31.5919 75.2369 29.6549 76.9044 28.7171C78.2338 27.9704 79.6384 28.0534 80.8928 28.6305C80.8252 27.6963 81.0618 26.744 81.7077 25.8999C83.0297 24.1689 85.4332 23.1729 87.5251 24.4354C87.7992 24.6014 88.1673 24.8863 88.524 25.2362C87.8293 23.1116 88.4564 20.8824 90.8262 19.9229C92.2721 19.335 94.2287 19.6307 95.4831 20.6443C94.6869 16.507 101.045 13.4662 103.516 17.7406C104.077 18.7089 104.632 19.7285 105.128 20.7716L105.311 21.1638L105.33 21.1566L105.204 20.8698L105.075 20.583C104.387 19.05 103.512 17.4557 103.272 15.7928C102.919 13.3327 104.061 10.9989 106.847 10.6382C108.286 10.4506 109.886 11.0783 110.851 12.1752C110.329 8.35852 114.768 5.58465 117.964 8.43427C119.477 9.78333 120.285 11.7564 121.246 13.4878C121.791 14.4654 122.346 15.4393 122.891 16.4204C123.03 16.2617 123.18 16.103 123.338 15.9479C122.531 13.6249 121.903 11.2442 121.374 8.84909C120.871 6.59103 122.046 4.24641 124.472 3.60831C126.677 3.02359 129.437 4.32973 129.929 6.58418C130.274 8.17095 130.684 9.7404 131.134 11.3019C131.442 11.2298 131.747 11.1793 132.047 11.1432C132.072 10.8498 132.1 10.5548 132.132 10.2615L132.25 9.21804C132.513 6.83394 132.778 4.11237 134.075 2.08574C136.287 -1.37709 141.958 0.0585465 142.018 4.15262C142.052 6.27 141.154 8.36934 140.843 10.4651C140.707 11.3777 140.628 12.3011 140.583 13.2245C141.188 10.1585 142.018 7.1321 142.979 4.15262C143.092 3.79552 143.212 3.43841 143.329 3.08131ZM94.4014 121.315C99.3775 120.576 103.925 123.242 106.874 126.975C107.411 127.657 107.058 128.62 106.573 129.193C106.224 129.615 105.754 129.666 105.225 129.731C104.617 129.807 103.847 129.334 103.58 128.825C101.683 125.189 98.2997 122.892 94.4014 121.478C94.3301 121.452 94.3075 121.33 94.4014 121.315ZM101.3 56.1693L101.45 56.0139C102.457 55.0108 100.866 53.4785 99.8568 54.4838C98.7943 55.5421 98.0883 56.8277 97.4093 58.1306C96.7622 59.3729 98.7053 60.4701 99.355 59.2232L99.6509 58.6564C100.115 57.7751 100.61 56.9044 101.3 56.1693ZM87.3249 54.1104C88.752 53.8796 88.147 51.7936 86.7259 52.0237C84.8849 52.3217 83.0511 52.6604 81.2097 52.9587C79.783 53.1895 80.388 55.2755 81.8091 55.0458C83.6501 54.7475 85.4839 54.4087 87.3249 54.1104ZM172.338 39.8692C170.96 39.4273 170.368 41.5169 171.739 41.9563C173.634 42.5633 175.513 43.1856 177.311 44.0286C178.609 44.6374 179.753 42.7715 178.448 42.1597C176.475 41.2345 174.418 40.5358 172.338 39.8692ZM87.0004 37.0643C85.654 36.547 85.0693 38.6395 86.4014 39.1514L91.2686 41.0209C92.615 41.5382 93.1997 39.4461 91.8676 38.9342L87.0004 37.0643ZM189.334 31.9828L189.156 31.8751C187.936 31.1154 186.805 32.9883 188.019 33.7439C188.731 34.1873 189.598 34.4881 190.25 35.0162L190.386 35.133C191.44 36.0889 193.037 34.5617 191.98 33.6025C191.207 32.9015 190.228 32.5112 189.334 31.9828Z" fill="black"/>
<path fill-rule="evenodd" clip-rule="evenodd" d="M119.708 163.004C120.329 161.681 121.976 161.853 123.063 162.453C126.323 165.017 122.912 169.987 122.01 173.116C119.691 179.185 115.662 185.117 110.1 187.953C110.561 193.987 111.083 200.007 111.276 206.059C118.387 215.549 130.376 219.013 141.018 221.676C157.734 226.65 176.599 216.46 182.24 198.683C175.819 194.758 173.741 184.48 175.657 177.31C175.824 176.806 176.55 176.583 176.808 177.146C178.566 181.036 178.331 185.783 180.33 189.627C199.516 191.603 224.276 199.392 236.845 216.086C242.415 224.438 244.622 235.3 247.365 244.98C253.219 264.935 257.882 285.294 263.623 305.27L264.3 301.491C266.155 291.079 267.84 280.526 266.587 269.937L266.565 269.431C266.156 261.005 263.705 245.349 269.778 239.661C275.271 235.144 283.229 231.515 290.122 233.597C302.389 227.724 312.977 217.834 326.041 213.981C330.062 213.091 335.847 214.145 334.896 220.014C332.262 230.279 321.232 234.263 313.692 239.556C318.525 240.965 324.418 247.29 320.641 252.804C320.609 252.902 320.58 252.976 320.551 253.035C323.613 254.495 324.042 258.165 323.29 261.313C323.214 262.144 323.011 261.43 323.465 262.183C326.92 265.69 325.393 275.464 320.188 275.794C320.528 280.425 317.764 284.923 314.262 287.45C310.487 290.171 305.03 290.288 301.905 294.013C294.568 307.932 292.037 324.364 291.237 340.304C296.074 342.251 300.413 348.076 296.019 353.017C295.932 353.028 295.845 353.039 295.758 353.047C293.21 360.36 292.227 368.156 290.88 375.795C288.807 388.828 283.406 400.794 276.51 411.651C268.534 426.023 247.087 423.744 236.283 414.469C236.326 416.903 236.698 419.322 235.974 421.673C234.905 424.21 232.298 423.114 232.04 420.615C226.329 424.071 224.983 412.664 231.333 414.473C230.844 406.226 230.561 397.967 230.331 389.707C223.143 392.21 222.833 379.379 230.186 381.944L230.177 378.397C230.123 351.197 230.402 323.904 233.739 296.918C234.047 294.9 234.57 292.947 234.875 290.94C234.907 290.733 235.208 290.792 235.209 290.991C235.726 328.771 233.431 366.633 235.825 404.427C237.819 405.08 238.613 407.541 240.089 408.975C243.366 412.23 247.828 413.815 252.192 414.367C264.41 416.21 269.686 412.195 275.127 400.768C272.673 402.533 269.356 399.417 270.852 396.624L270.899 396.54C272.453 393.58 276.84 395.354 276.284 398.668C281.755 389.242 284.618 378.613 286.733 367.829L287.019 366.541C288.047 361.963 289.381 356.716 291.849 352.574C276.796 348.446 262.07 335.869 259.714 318.614C255.892 331.534 250.715 344.163 245.78 356.729C244.255 361.098 243.62 365.795 241.436 369.848C240.928 370.785 239.639 370.543 239.352 369.555C237.387 360.103 243.341 351.113 246.432 342.605C248.956 337.797 256.202 315.839 260.694 315.786C255.646 291.98 248.914 268.353 242.502 244.844C236.301 213.1 223.667 206.979 196.9 196.985C201.728 223.456 223.77 249.08 212.041 276.845L211.756 277.565C210.556 280.626 209.56 283.711 210.397 287.071C211.21 290.331 213.061 293.162 214.542 296.094C222.819 312.658 217.121 332.002 213.921 349.251C209.878 369.48 205.885 389.727 201.706 409.924C200.882 413.954 200.348 418.105 199.104 422.009C198.462 424.024 195.257 423.833 195.464 421.482C195.86 416.921 197.05 412.474 197.922 407.996C203.125 379 210.165 350.347 214.642 321.224C217.522 299.666 206.185 296.354 206.608 282.425C208.149 275.301 212.228 268.943 211.994 261.352C212.9 238.113 197.168 218.941 195.226 196.34L191.796 195.024C190.082 194.364 188.37 193.698 186.663 193.017C195.647 260.615 192.919 329.689 188.428 397.621C187.511 400.756 188.384 432.804 184.537 430.861C184.343 432.084 183.739 433.287 182.425 433.281C170.497 433.399 158.565 433.602 146.636 433.755C140.899 433.186 133.012 435.543 128.132 431.981C122.497 430.251 121.85 403.68 120.343 397.828L119.756 393.572C110.181 324.028 101.613 253.049 108.495 182.817C98.92 183.212 96.9437 194.332 96.2335 202.427C94.4578 220.296 83.7277 235.684 83.2131 253.757C83.1696 258.142 83.9389 262.39 85.568 266.416C89.8901 276.28 97.365 287.683 91.7782 298.699C85.171 307.275 85.7429 309.532 88.1674 320.131C94.9887 355.167 106.317 388.85 117.093 422.631C114.752 435.761 100.668 387.017 99.3435 383.342C93.1093 386.715 89.7039 375.522 96.8544 374.725C92.2616 358.184 88.0349 341.52 84.5159 324.672L84.4227 324.197C82.8683 316.413 79.8108 307.298 84.9739 300.393C98.2871 285.907 76.1784 269.716 78.9673 252.168C76.5591 254.089 72.9138 252.068 72.9686 248.841C72.8594 245.208 77.3948 243.348 79.5773 246.119C81.8212 231.882 89.628 219.453 91.9905 205.258L92.0972 204.591C92.8977 199.574 93.1235 194.295 95.4137 189.722C92.2961 191.901 88.9759 193.662 85.5611 195.216C91.6668 200.703 79.8433 205.711 80.8217 197.235C47.338 207.657 39.7698 222.193 27.476 255.573C29.7724 253.172 33.7062 256.279 32.3315 259.34C31.2349 262.565 26.4508 261.623 26.4526 258.185L25.8923 259.623C18.4375 278.802 11.6523 298.446 8.24251 318.971C14.9314 317.955 13.2283 329.457 7.16798 326.214C4.73585 344.468 4.69739 362.981 4.9946 381.382C10.6365 378.199 10.8064 389.015 5.04903 385.931C5.25951 401.01 5.56797 416.09 5.80023 431.169C5.8474 434.379 1.24588 434.363 1.17331 431.169C0.635857 407.999 -0.343599 384.787 0.121997 361.61C-0.316018 321.382 10.4322 282.61 26.4468 246.575C40.6168 205.083 60.1899 200.364 96.2012 188.301C99.5253 182.991 106.627 177.97 112.422 181.304C115.663 175.674 117.31 169.003 119.708 163.004ZM58.01 307.612C58.1442 307.101 58.8229 307.229 58.8446 307.733C59.1458 314.242 58.8773 320.794 58.4636 327.33C58.2128 331.321 57.9047 335.307 57.6435 339.271C56.9503 349.727 56.3915 360.195 55.9669 370.671C56.1157 370.605 56.2681 370.546 56.4278 370.499C57.1608 370.284 57.8942 370.284 58.6269 370.499C59.2806 370.696 59.8521 371.039 60.3444 371.535L60.4486 371.643C60.8514 372.045 61.1381 372.522 61.3051 373.073C61.5429 373.562 61.6632 374.086 61.6629 374.646L61.6603 374.787C61.6571 375.591 61.472 376.336 61.0946 377.032C60.7281 377.699 60.2345 378.23 59.614 378.628C58.968 379.031 58.2745 379.23 57.5273 379.234C57.4475 379.242 57.3673 379.25 57.2878 379.253C56.7322 379.277 56.2136 379.152 55.7343 378.883L55.662 378.859C55.4806 384.173 55.3318 389.491 55.2229 394.809C55.125 399.444 54.9943 404.079 54.9072 408.713L54.8668 411.032L54.7878 416.155C54.7621 418.263 54.7747 420.28 54.1089 422.267L54.029 422.497C53.55 423.824 53.1766 425.671 51.8948 426.409C50.8718 426.998 49.4928 426.78 48.9049 425.632C48.4114 424.671 48.8392 423.289 49.569 422.641C49.5545 422.598 49.5327 422.559 49.5146 422.516C49.4021 422.164 49.2312 421.833 49.1299 421.477C48.8102 420.353 48.8977 419.154 48.894 417.986C48.894 415.925 48.959 413.864 49.0102 411.805C49.1227 407.425 49.2533 403.048 49.4126 398.671C49.952 383.988 50.9677 369.305 52.1309 354.663L52.5257 349.721C53.0516 343.149 53.596 336.57 54.3665 330.032C54.4024 329.72 54.4391 329.408 54.479 329.095C54.0653 328.873 53.6806 328.564 53.3754 328.221C52.1529 326.839 51.4113 324.774 50.7159 322.995L50.5561 322.59C49.8013 320.693 49.1045 318.772 48.7452 316.733L48.7109 316.546C48.547 315.678 48.2235 314.14 49.0791 313.719C49.5255 313.5 49.8082 313.657 49.9537 314.137C49.9722 314.199 49.957 314.27 49.9247 314.324C50.2767 314.906 50.8283 315.449 51.1766 315.988L52.369 317.822L52.9585 318.744C53.706 319.927 54.5044 321.06 55.3282 322.176C55.9774 317.272 56.7725 312.388 58.01 307.612ZM106.907 416.898C108.398 415.64 110.826 416.324 110.826 418.643C110.826 420.974 108.395 421.646 106.907 420.388L106.833 420.329L106.761 420.267C105.951 419.586 105.924 417.813 106.7 417.074L106.761 417.019C106.808 416.976 106.856 416.937 106.907 416.898ZM42.0609 412.368C42.7359 412.368 43.3637 412.552 43.948 412.919C44.202 413.126 44.4524 413.337 44.7064 413.548C45.1709 414.047 45.4903 414.641 45.6681 415.324L45.8027 416.394C45.8205 416.948 45.7153 417.464 45.4794 417.944C45.327 418.444 45.0693 418.877 44.7064 419.241C44.3653 419.635 43.9661 419.912 43.502 420.072C43.0925 420.305 42.6558 420.423 42.189 420.423L42.0609 420.42C41.3827 420.42 40.7545 420.236 40.1702 419.869C39.9162 419.662 39.6658 419.451 39.4118 419.241C38.9509 418.741 38.6279 418.147 38.4505 417.464C38.4065 417.108 38.3634 416.749 38.3158 416.394C38.298 415.839 38.4065 415.324 38.6388 414.844C38.7912 414.344 39.0489 413.911 39.4118 413.548C39.7533 413.153 40.1521 412.876 40.6166 412.716C41.0257 412.483 41.4654 412.366 41.9328 412.365L42.0609 412.368ZM211.808 404.942L212.76 405.079C213.67 405.302 214.403 406.024 214.893 406.848C215.155 407.289 215.296 407.766 215.318 408.277C215.423 408.785 215.401 409.296 215.252 409.808C215.143 410.307 214.93 410.745 214.614 411.116C214.505 411.299 214.378 411.467 214.233 411.616C213.935 412.151 213.485 412.502 213.021 412.861C212.629 413.131 212.204 413.275 211.747 413.299C211.446 413.384 211.141 413.384 210.836 413.299C210.382 413.275 209.958 413.131 209.566 412.861C209.334 412.67 209.102 412.475 208.873 412.283C208.67 412.03 208.481 411.768 208.303 411.495C208.183 411.194 208.067 410.897 207.951 410.6C207.737 409.886 207.842 409.253 207.959 408.539C207.976 408.418 208.006 408.308 208.046 408.191L208.124 407.964C208.333 407.371 208.444 407.17 208.815 406.653L208.956 406.45C209.026 406.349 209.099 406.25 209.181 406.161C209.413 405.903 209.744 405.688 210.005 405.466C210.564 405.118 211.166 404.947 211.808 404.942ZM88.7223 402.443C89.2485 402.447 89.7424 402.588 90.1993 402.873L90.7944 403.369C91.1573 403.763 91.4077 404.224 91.5493 404.759C91.5819 405.04 91.6186 405.321 91.6545 405.598C91.669 406.032 91.5859 406.437 91.4005 406.817C91.2847 407.207 91.0811 407.542 90.7944 407.832C90.5299 408.136 90.2138 408.355 89.8509 408.484C89.5342 408.661 89.1935 408.755 88.8315 408.756L88.7223 408.753C88.1925 408.753 87.6989 408.609 87.2417 408.323L86.6465 407.832C86.2837 407.437 86.0333 406.973 85.8917 406.437C85.8591 406.157 85.8228 405.879 85.7865 405.598C85.772 405.165 85.8554 404.759 86.0405 404.384C86.1603 403.994 86.3599 403.654 86.6465 403.369C86.9115 403.06 87.2272 402.842 87.5901 402.717C87.9069 402.538 88.2413 402.447 88.6013 402.442L88.7223 402.443ZM64.6511 401.151C65.4092 401.143 66.1789 401.374 66.7994 401.846C67.4018 402.306 67.8587 402.803 68.153 403.548C68.2329 403.752 68.3123 403.951 68.3817 404.154C68.6937 405.048 68.7518 405.946 68.32 406.82C67.9026 407.668 67.0026 408.039 66.1967 408.292C65.5148 408.511 64.7418 408.546 64.0632 408.285C63.7257 408.156 63.3955 408.019 63.0906 407.82C62.5209 407.441 62.2124 406.992 61.8314 406.437C61.5338 405.891 61.385 405.297 61.385 404.665C61.385 404.028 61.5338 403.439 61.8314 402.889C62.4153 401.815 63.4971 401.159 64.6511 401.151ZM26.184 401.904C27.1424 401.904 27.984 402.38 28.5613 403.184C29.1452 404.001 29.3593 405.016 29.1017 406.028C28.8295 407.097 28.0061 408.034 26.986 408.304C26.2315 408.503 25.6142 408.495 24.8631 408.358C24.228 408.241 23.7421 407.835 23.2554 407.413C22.7002 406.925 22.5296 406.035 22.6204 405.317C22.7074 404.598 23.0163 404.13 23.4844 403.704L23.4877 403.692L23.3135 403.837C23.3792 403.774 23.4441 403.708 23.5098 403.642C23.5312 403.603 23.5494 403.56 23.5675 403.517C23.8361 403.025 24.199 402.638 24.6526 402.349C25.128 402.052 25.636 401.904 26.184 401.904ZM249.579 390.077C250.105 389.925 250.635 389.925 251.161 390.077C251.549 390.175 251.887 390.366 252.174 390.651C252.464 390.855 252.702 391.115 252.881 391.439L252.939 391.549C253.353 392.307 253.418 393.173 253.24 394.016C253.019 395.059 252.126 396.008 251.161 396.254L251.128 396.26L251.096 396.27C250.704 396.403 250.308 396.422 249.916 396.324C249.52 396.305 249.154 396.18 248.817 395.946C248.389 395.649 248.029 395.266 247.754 394.806C247.535 394.439 247.42 394.044 247.401 393.618C247.333 393.337 247.333 393.056 247.401 392.775C247.42 392.349 247.535 391.955 247.754 391.588L248.218 390.944L248.265 390.901C248.635 390.502 249.074 390.229 249.579 390.077ZM213.042 369.414C217.8 369.414 217.792 377.356 213.042 377.356C208.285 377.356 208.292 369.414 213.042 369.414ZM38.8601 368.411C39.3613 368.29 39.8621 368.314 40.3593 368.481C40.6605 368.618 40.958 368.755 41.2556 368.887L42.0177 369.52C42.1592 369.649 42.2282 369.789 42.3588 369.973L42.5221 370.203C42.7582 370.543 42.7638 370.615 43.0229 371.34C43.1971 372.035 43.1971 372.729 43.0229 373.425C42.9391 373.76 42.8124 374.077 42.6491 374.37C42.4998 374.651 42.3212 374.897 42.1201 375.124L42.0177 375.236C41.6766 375.631 41.2738 375.908 40.8093 376.072C40.5153 376.256 40.1996 376.345 39.8621 376.345C39.3613 376.466 38.8601 376.443 38.3633 376.275C38.0621 376.138 37.7646 376.002 37.4666 375.869L36.7049 375.236L36.117 374.416L35.9295 373.935L35.7396 373.452L35.6053 372.378C35.5872 371.82 35.6924 371.304 35.9279 370.82C36.0187 370.48 36.1787 370.18 36.4106 369.93C36.5779 369.625 36.8025 369.383 37.0859 369.204C37.3178 368.953 37.5976 368.782 37.9133 368.684C38.2073 368.501 38.523 368.411 38.8601 368.411ZM274.168 362.737C274.564 362.722 274.934 362.812 275.275 363.007C275.395 363.05 275.511 363.104 275.623 363.167C276.063 363.444 276.411 363.819 276.669 364.288C276.879 364.647 276.995 365.034 277.013 365.451C277.092 365.828 277.085 366.207 276.99 366.584L276.959 366.697C276.879 367.006 276.759 367.29 276.6 367.552C276.585 367.583 276.567 367.614 276.545 367.642C276.302 368.056 275.979 368.395 275.58 368.649C275.137 368.922 274.662 369.063 274.146 369.067C273.119 369.067 272.234 368.47 271.693 367.552C271.617 367.423 271.574 367.259 271.519 367.126C271.472 367.001 271.396 366.842 271.355 366.697C271.218 366.143 271.218 365.588 271.355 365.034C271.446 364.627 271.617 364.272 271.875 363.971C272.081 363.632 272.353 363.363 272.691 363.167C273.11 362.904 273.56 362.764 274.037 362.741L274.168 362.737ZM73.2989 358.853C73.8014 358.705 74.3011 358.694 74.8002 358.819L74.925 358.853C75.3239 358.955 75.669 359.15 75.9662 359.439C76.2964 359.673 76.5617 359.982 76.7537 360.364C77.0298 360.876 77.1677 361.43 77.171 362.023C77.1677 362.617 77.0298 363.172 76.7537 363.683C76.4815 364.179 76.115 364.569 75.6545 364.862L75.2553 365.069C74.9214 365.296 74.5658 365.417 74.1807 365.436C73.9234 365.51 73.6654 365.51 73.4118 365.436C73.1501 365.436 72.907 365.366 72.6823 365.225C72.4356 365.151 72.2247 365.018 72.0433 364.823C71.7276 364.604 71.4812 364.316 71.2997 363.953L71.0054 363.206L70.9042 362.379L71.0054 361.555L71.1654 361.149C71.3102 360.59 71.5719 360.107 71.9526 359.697C72.3336 359.29 72.7836 359.009 73.2989 358.853ZM253.266 352.265C253.795 352.085 254.322 352.062 254.848 352.187C255.203 352.187 255.537 352.285 255.846 352.48C256.184 352.581 256.474 352.76 256.721 353.026C257.152 353.327 257.49 353.725 257.74 354.221L258.139 355.24C258.379 355.9 258.292 356.872 258.147 357.536C258.027 358.082 257.795 358.559 257.45 358.965C257.276 359.281 257.044 359.531 256.749 359.719C256.413 360.048 256.026 360.282 255.586 360.421L255.465 360.456L255.421 360.468C255.414 360.472 255.407 360.472 255.4 360.472C255.396 360.476 255.388 360.476 255.385 360.476C255.211 360.523 255.033 360.55 254.848 360.558C254.322 360.683 253.795 360.66 253.266 360.48C252.954 360.339 252.638 360.195 252.322 360.051C252.054 359.832 251.789 359.609 251.52 359.387C251.314 359.098 251.107 358.809 250.9 358.524C250.609 358.036 250.453 357.505 250.432 356.938C250.337 356.56 250.337 356.185 250.432 355.806C250.432 355.42 250.522 355.065 250.7 354.732C250.86 354.202 251.132 353.745 251.52 353.358C251.789 353.135 252.054 352.913 252.322 352.694C252.638 352.55 252.954 352.406 253.266 352.265ZM21.8111 338.288C22.3587 338.127 22.907 338.127 23.455 338.288L24.1913 338.619C24.5542 338.83 24.8413 339.115 25.059 339.478C25.3348 339.798 25.5195 340.177 25.6139 340.611C25.8283 341.204 25.8029 342.145 25.6324 342.75C25.44 343.438 25.1425 343.984 24.6816 344.5C23.9159 345.351 22.7397 345.597 21.6986 345.339C21.4115 345.269 21.1394 345.132 20.8926 344.964C20.1055 344.441 19.5757 343.527 19.5793 342.516C19.5793 342.407 19.5865 342.297 19.6011 342.189C19.5502 341.966 19.5317 341.735 19.5394 341.493L19.6482 340.611L19.6551 340.587C19.8006 340.029 20.0619 339.545 20.4426 339.135C20.7947 338.76 21.2052 338.488 21.6744 338.326L21.7929 338.288H21.8111ZM295.649 250.61C294.657 241.865 290.93 232.457 279.562 237.592L278.717 237.932C275.904 239.078 272.626 240.583 270.914 243.23C269.735 245.053 270.133 248.587 269.971 250.715C269.229 257.634 269.627 264.543 270.399 271.433C271.396 287.582 268.24 304.314 261.957 318.99C268.245 329.937 276.661 340.147 288.14 344.709C288.626 332.264 290.89 320.046 293.301 307.901L293.396 307.372C294.36 301.896 294.842 296.275 298.185 291.721C304.985 283.777 314.337 288.273 318.812 275.513C317.872 275.002 318.391 273.252 319.524 273.588C323.449 274.338 324.086 266.509 321.4 264.623C318.601 262.787 321.419 259.399 320.228 256.954C319.564 255.9 318.13 255.865 317.48 254.65C315.758 250.18 324.377 247.315 314.241 242.276C312.166 241.482 309.847 241.974 307.755 241.965C304.677 242.275 302.231 244.608 299.416 245.342C302.481 253.881 294.747 262.104 287.767 255.283C283.968 259.146 279.72 267.951 288.954 263.847C293.473 260.601 297.363 256.407 302.609 254.408L302.72 254.371C304.668 253.685 313.189 249.23 312.767 253.086C309.575 256.4 304.31 256.361 300.613 259.052C295.488 261.602 292.211 267.781 286.076 267.696C284.661 276.937 294.407 271.314 298.037 268.766L299.043 268.178C304.162 265.203 309.358 262.446 315.329 262.409C316.976 262.398 316.969 265.131 315.329 265.154C307.548 265.207 301.216 270.439 294.698 274.33C294.056 279.724 301.398 277.362 304.184 276.566C307.105 276.125 311.796 272.726 314.353 274.521C315.352 277.285 310.952 277.08 309.421 277.918C316.414 281.532 310.287 283.808 308.412 278.254L307.862 278.455C303.179 280.149 291.823 283.634 293.174 275.099C291.46 275.915 289.37 276.403 287.476 275.95C282.753 283.467 275.219 280.558 286.17 275.435C283.702 274.2 282.878 269.432 285.248 267.657C276.629 267.091 283.028 257.36 286.596 254.118C286.259 253.751 285.933 253.378 285.629 252.999C283.572 254.053 281.409 254.694 279.097 254.92C276.883 255.135 276.39 251.082 278.574 250.75C280.915 250.395 283.071 249.723 285.132 248.458C288.256 247.007 289.322 253.243 292.448 253.464C294.154 253.827 295.307 252.218 295.649 250.61ZM223.077 331.08C223.832 331.08 224.503 331.42 225.051 331.959C225.599 332.497 225.834 333.306 225.867 334.079C225.882 334.493 225.802 334.879 225.628 335.238C225.515 335.609 225.323 335.93 225.051 336.203C224.543 336.746 223.791 337.082 223.077 337.082C222.322 337.082 221.651 336.742 221.102 336.203C220.555 335.66 220.318 334.856 220.286 334.079C220.271 333.669 220.351 333.282 220.525 332.923C220.627 332.589 220.792 332.293 221.023 332.041L221.102 331.959C221.611 331.412 222.362 331.08 223.077 331.08ZM245.949 312.561L246.07 312.563C246.708 312.568 247.3 312.739 247.852 313.083C248.091 313.282 248.331 313.477 248.567 313.677C249.006 314.153 249.307 314.711 249.474 315.356C249.645 316.027 249.645 316.703 249.474 317.374C249.416 317.761 249.282 318.136 249.071 318.46C248.759 319.018 248.346 319.467 247.823 319.799C247.282 320.139 246.698 320.306 246.07 320.31C245.442 320.306 244.858 320.139 244.317 319.799C243.794 319.467 243.381 319.018 243.072 318.46C242.858 318.136 242.724 317.761 242.666 317.374C242.495 316.703 242.495 316.027 242.666 315.356C242.821 314.757 243.092 314.233 243.481 313.78L243.573 313.677C243.892 313.306 244.27 313.044 244.709 312.891C245.095 312.673 245.508 312.563 245.949 312.561ZM71.3964 312.77C71.6654 312.692 71.9303 312.692 72.1988 312.77C72.598 312.789 72.9714 312.918 73.3165 313.153C73.5197 313.324 73.723 313.493 73.9262 313.66L74.1034 313.889C74.4821 314.386 74.4917 314.47 74.7823 315.226C74.9024 315.648 74.9205 316.07 74.8334 316.491C74.8334 316.776 74.7645 317.042 74.6335 317.288C74.5613 317.557 74.4379 317.791 74.2528 317.987C74.1218 318.224 73.948 318.416 73.7262 318.557C73.4435 318.834 73.1097 319.025 72.725 319.123L71.9444 319.236C71.8432 319.221 71.7379 319.205 71.6363 319.193C71.5138 319.189 71.3948 319.174 71.2784 319.15L71.1606 319.123L71.0533 319.092C70.9111 319.047 70.7728 318.988 70.6384 318.912C70.3843 318.834 70.163 318.697 69.9739 318.494C69.6477 318.268 69.3864 317.963 69.1977 317.585L69.1469 317.46C69.0779 317.326 69.0198 317.19 68.9759 317.042C68.8529 316.808 68.7912 316.558 68.7876 316.288C68.7154 315.93 68.7202 315.575 68.8066 315.219L68.8384 315.101L69.1178 314.386C69.263 314.145 69.4154 313.898 69.611 313.699C69.7289 313.587 70.017 313.345 70.1793 313.224L70.2787 313.153C70.6238 312.918 70.9976 312.789 71.3964 312.77ZM32.3391 305.855C33.8085 307.437 33.1592 310.342 31.102 310.904L30.8657 310.966C28.8771 311.509 27.0844 309.576 27.5888 307.437L27.6468 307.187C28.1694 304.973 30.8694 304.274 32.3391 305.855ZM276.727 289.129C276.713 288.91 276.974 288.833 277.105 288.962C278.854 290.648 279.968 292.671 282.091 293.978C284.225 295.291 286.424 295.185 288.648 296.032C289.403 296.321 289.407 297.407 288.648 297.692C284.439 299.273 277.046 293.912 276.727 289.129ZM78.9307 288.785C79.3992 288.629 79.8709 288.606 80.3391 288.719C80.6584 288.719 80.9556 288.805 81.2278 288.976C81.529 289.066 81.787 289.23 82.008 289.464C82.2733 289.633 82.4838 289.863 82.6431 290.148C82.9555 290.515 83.166 290.944 83.2745 291.436L83.3979 292.448L83.2745 293.459C83.1548 293.759 83.035 294.064 82.9189 294.365L82.5946 294.838C82.3319 295.215 82.2898 295.219 81.6524 295.728C81.2463 296.004 80.8072 296.157 80.3391 296.177C80.0266 296.27 79.7145 296.27 79.3992 296.177C79.0834 296.177 78.7855 296.091 78.5101 295.919C78.2121 295.829 77.9512 295.665 77.7295 295.431C77.3452 295.161 77.044 294.806 76.8222 294.365C76.7025 294.064 76.5831 293.759 76.467 293.459L76.3396 292.448L76.467 291.436L76.4739 291.405C76.6408 290.773 76.9387 290.222 77.3666 289.757L78.071 289.171C78.3464 288.98 78.6331 288.883 78.9307 288.785ZM248.335 289.543C249.34 289.246 250.443 289.558 251.18 290.351C251.917 291.144 252.207 292.326 251.931 293.408C251.659 294.463 250.872 295.317 249.888 295.603C249.594 295.688 249.297 295.735 248.995 295.72C248.491 295.716 248.019 295.579 247.58 295.306L247.014 294.833C246.738 294.56 246.546 294.236 246.433 293.861C246.255 293.502 246.175 293.116 246.19 292.698L246.187 292.624C246.175 292.475 246.194 292.326 246.237 292.182C246.237 292.03 246.259 291.881 246.296 291.737C246.56 290.683 247.359 289.831 248.335 289.543ZM31.6274 278.969C31.9504 278.957 32.2516 279.027 32.531 279.187C32.825 279.288 33.0754 279.46 33.2858 279.71C33.5181 279.937 33.6778 280.21 33.7721 280.522C33.9209 280.823 33.9862 281.147 33.9753 281.495C33.9753 281.951 33.8665 282.377 33.656 282.767C33.5326 282.94 33.4092 283.111 33.2858 283.279C32.9955 283.595 32.6508 283.81 32.2516 283.931L32.0193 284.017C31.6782 284.15 31.3444 284.157 30.9887 284.107C30.6149 284.052 30.2698 283.943 29.9653 283.693C29.6674 283.505 29.4319 283.252 29.2577 282.931L29.0581 282.424C29.0146 282.252 28.9964 281.995 28.9855 281.815C28.9855 281.787 28.9855 281.764 28.9819 281.737C28.9819 281.584 29.0254 281.214 29.0614 281.061C29.1416 280.741 29.3045 280.436 29.49 280.179C29.6496 279.91 29.8674 279.698 30.1359 279.542L30.1598 279.523L30.1867 279.503C30.2698 279.441 30.3573 279.378 30.4444 279.311C30.8073 279.085 31.2028 278.969 31.6274 278.969ZM219.023 276.197C219.604 276.197 220.144 276.357 220.645 276.67C220.663 276.677 220.681 276.685 220.695 276.693C221.175 276.997 221.556 277.408 221.839 277.923C222.129 278.458 222.274 279.036 222.274 279.653C222.274 280.273 222.129 280.847 221.839 281.382C221.556 281.898 221.175 282.308 220.695 282.613C220.681 282.624 220.663 282.631 220.645 282.64C220.144 282.952 219.604 283.108 219.023 283.112C218.446 283.108 217.905 282.952 217.404 282.64C216.425 282.023 215.811 280.871 215.811 279.653C215.811 278.434 216.425 277.283 217.404 276.67C217.905 276.357 218.446 276.197 219.023 276.197ZM68.3191 271.682L68.4179 271.68C68.8026 271.664 69.1615 271.75 69.4917 271.941C69.8365 272.062 70.1377 272.269 70.3921 272.562L70.9219 273.038L71.0757 273.172C71.101 273.195 71.126 273.218 71.1502 273.241C71.5062 273.628 71.7493 274.081 71.8872 274.604C71.9308 274.905 71.9667 275.201 71.9961 275.502C72.0755 276.283 71.6477 277.084 71.1759 277.638C70.9219 277.931 70.6203 278.137 70.2723 278.262C69.9385 278.45 69.5756 278.536 69.1905 278.52C68.403 278.446 67.6558 278.266 67.0897 277.61C67.024 277.532 66.9623 277.45 66.8974 277.368L66.4438 276.806C66.099 276.432 65.8591 275.99 65.7289 275.482C65.6922 275.213 65.6599 274.947 65.6273 274.682C65.5942 273.881 65.9571 273.132 66.4438 272.562C66.8931 272.034 67.6551 271.711 68.3191 271.682ZM50.0009 263.459C53.7747 263.459 53.7674 269.758 50.0009 269.758C46.2301 269.758 46.2374 263.459 50.0009 263.459ZM239.752 254.629L239.871 254.631C240.496 254.635 241.08 254.803 241.621 255.143L242.325 255.725C242.753 256.193 243.05 256.74 243.218 257.372C243.257 257.704 243.297 258.036 243.341 258.364C243.359 258.88 243.257 259.36 243.04 259.805C242.902 260.266 242.662 260.667 242.325 261.008C242.009 261.371 241.639 261.628 241.207 261.777C240.794 262.011 240.347 262.12 239.871 262.101C239.244 262.097 238.659 261.929 238.119 261.589C237.883 261.394 237.651 261.199 237.415 261.008C237.02 260.575 236.736 260.076 236.566 259.504L236.526 259.36L236.399 258.364C236.381 257.853 236.482 257.372 236.7 256.927C236.838 256.463 237.077 256.064 237.415 255.725C237.731 255.361 238.104 255.103 238.533 254.955C238.912 254.741 239.319 254.631 239.752 254.629ZM222.754 242.84C223.091 242.828 223.403 242.902 223.697 243.066C223.998 243.171 224.26 243.355 224.481 243.609C224.949 244.011 225.236 244.815 225.236 245.467C225.236 246.119 224.949 246.924 224.481 247.326C224.176 247.65 223.817 247.876 223.403 248.001L222.754 248.095C222.122 248.127 221.48 247.771 221.03 247.326C220.939 247.236 220.852 247.147 220.761 247.06C220.352 246.654 220.174 246.049 220.148 245.467C220.137 245.159 220.199 244.87 220.329 244.601C220.413 244.32 220.558 244.081 220.761 243.874C220.852 243.788 220.939 243.699 221.03 243.609C221.52 243.121 222.093 242.875 222.754 242.84ZM330.454 221.838C332.838 218.712 331.45 216.488 327.866 217.261C321.694 218.159 315.884 222.357 310.447 225.367C304.514 228.739 298.399 231.52 292.346 234.689C294.843 236.338 296.701 238.921 298.119 241.868C300.952 239.554 304.572 238.447 308.107 238.303C314.519 231.696 325.137 230.183 330.454 221.838ZM48.7311 232.212C49.3777 232.215 49.9835 232.379 50.5511 232.705L50.6722 232.778L51.4488 233.426C51.8262 233.801 52.0911 234.245 52.2472 234.757C52.4867 235.249 52.5956 235.784 52.5774 236.354C52.5956 236.924 52.4867 237.455 52.2472 237.947C52.0911 238.463 51.8262 238.904 51.4488 239.279C51.2347 239.579 50.9589 239.814 50.6287 239.986C50.3198 240.122 50.0154 240.263 49.7069 240.403C49.3622 240.52 48.963 240.536 48.5892 240.556C47.9106 240.552 47.2795 240.368 46.6909 240.001L45.9292 239.369C45.5626 239.001 45.301 238.568 45.1486 238.064C44.9327 237.621 44.8232 237.147 44.8232 236.641L44.826 236.503C44.826 236.472 44.826 236.436 44.8299 236.401C44.8731 236.034 44.9207 235.667 44.9671 235.3C45.0872 234.761 45.3159 234.289 45.657 233.89C45.7441 233.703 45.8602 233.551 46.0094 233.426C46.488 232.91 47.0538 232.559 47.7073 232.359C48.0485 232.313 48.3896 232.262 48.7311 232.212ZM217.223 221.868C217.713 221.868 218.167 222.001 218.588 222.263C218.773 222.416 218.954 222.567 219.136 222.72C219.474 223.083 219.706 223.512 219.832 224.004L219.931 224.777C219.941 225.18 219.865 225.55 219.695 225.898C219.586 226.257 219.401 226.57 219.136 226.835C218.893 227.12 218.603 227.319 218.265 227.436C217.945 227.62 217.597 227.702 217.223 227.687C216.737 227.687 216.28 227.554 215.859 227.288C215.677 227.14 215.492 226.987 215.311 226.835C215.005 226.502 214.784 226.114 214.652 225.672L214.618 225.55L214.52 224.777C214.505 224.375 214.582 224.004 214.752 223.657C214.861 223.294 215.05 222.981 215.311 222.72C215.558 222.434 215.848 222.236 216.182 222.118C216.472 221.953 216.784 221.87 217.113 221.867L217.223 221.868ZM69.9425 217.638L70.0691 217.64C70.7912 217.644 71.4626 217.839 72.0868 218.23C72.3553 218.453 72.6242 218.675 72.8924 218.902C73.3896 219.436 73.7307 220.069 73.9234 220.799L74.0646 221.939C74.0863 222.533 73.9702 223.083 73.7198 223.595C73.5605 224.13 73.2843 224.59 72.8924 224.981C72.5335 225.399 72.1049 225.695 71.6077 225.867C71.1324 226.136 70.6207 226.262 70.0691 226.238C69.3469 226.238 68.6755 226.043 68.0514 225.652C67.7832 225.43 67.5146 225.204 67.2425 224.981C66.7486 224.442 66.4075 223.809 66.2151 223.083L66.0736 221.939C66.0518 221.349 66.1679 220.795 66.4183 220.283C66.578 219.753 66.8538 219.288 67.2425 218.902C67.6054 218.48 68.0332 218.183 68.5304 218.011C68.9692 217.762 69.439 217.64 69.9425 217.638ZM204.316 206.903C204.646 206.809 204.976 206.809 205.306 206.903C205.799 206.926 206.261 207.086 206.689 207.379L207.44 208.004C207.451 208.015 207.462 208.027 207.473 208.043C207.926 208.534 208.242 209.117 208.416 209.784L208.547 210.835C208.565 211.377 208.46 211.885 208.231 212.354C208.095 212.804 207.87 213.196 207.559 213.535L207.44 213.661C207.102 214.052 206.707 214.329 206.246 214.489C205.956 214.673 205.64 214.763 205.306 214.763C204.813 214.883 204.316 214.86 203.822 214.692C203.528 214.555 203.23 214.423 202.933 214.29L202.838 214.231C201.717 213.572 201.024 212.19 201.024 210.835C201.024 209.479 201.717 208.093 202.838 207.433C202.871 207.418 202.9 207.398 202.933 207.379C203.361 207.086 203.822 206.926 204.316 206.903Z" fill="black"/>
<path fill-rule="evenodd" clip-rule="evenodd" d="M152.762 141.527C157.592 136.413 165.728 136.057 172.468 137.335C176.793 138.156 181.004 139.523 185.397 140.03C187.449 140.267 189.522 140.337 191.589 140.303C193.619 140.268 195.652 139.896 197.675 139.965C197.986 139.976 198.103 140.348 197.834 140.499C195.059 142.052 191.32 142.55 188.042 142.853C188.053 143.074 188.067 143.29 188.101 143.473C188.19 143.961 188.272 144.445 188.338 144.936C188.486 146.043 188.653 147.147 188.819 148.252C189.146 150.427 189.249 152.671 189.825 154.808L189.925 155.163C190.059 155.612 190.089 156.017 190.045 156.382L190.178 156.327L190.599 156.142L190.875 156.023C191.883 155.597 192.844 155.287 194.028 155.391C194.93 155.469 195.687 156.029 195.693 156.907C195.715 160.844 189.891 162.11 186.56 162.863L185.583 163.083C181.342 164.025 177.013 164.851 172.652 165.048C165.653 165.365 157.788 163.606 153.21 158.434C148.938 153.609 148.155 146.403 152.762 141.527ZM184.545 158.068C183.81 152.141 175.815 151.815 173.515 155.574C172.494 150.334 157.396 155.121 158.576 156.162C163.051 160.111 169.842 160.466 175.68 159.736C178.653 159.364 181.628 158.758 184.545 158.068ZM175.672 142.532L173.661 142.269L172.87 142.169C167.886 141.561 162.282 141.247 158.185 144.158C156.689 145.22 155.848 146.606 155.533 148.095C159.41 147.571 163.301 147.172 167.203 146.839L168.268 146.75C170.71 146.55 173.15 146.338 175.59 146.117L177.324 145.957L179.057 145.793C179.666 145.735 183.776 145.543 184.549 145.672C184.632 145.039 184.739 143.67 184.914 143.055C181.994 143.145 179.087 142.947 176.184 142.596L175.672 142.532ZM184.924 116.038C187.903 117.688 192.442 121.535 189.238 125.624C185.466 129.23 180.035 125.096 177.358 123.226C174.877 121.777 172.089 125.504 174.391 127.196C193.73 140.239 201.578 116.47 186.431 114.099C184.763 113.838 184.144 115.528 184.924 116.038ZM190.255 122.988L190.399 122.917L190.447 122.89C190.531 122.841 190.477 122.846 190.287 122.906L190.144 122.953V123.045C190.181 123.024 190.22 123.009 190.255 122.988ZM152.105 108.332L152.105 108.251C152.11 105.96 153.576 100.727 157.197 100.727C159.459 100.727 160.833 104.288 161.07 107.959L161.079 108.109C161.184 110.391 160.496 115.38 157.197 115.38C153.863 115.38 152.14 110.655 152.105 108.332ZM205.421 107.613L205.421 107.532C205.416 105.241 203.951 100.008 200.329 100.008C198.124 100.008 196.763 103.394 196.476 106.965L196.456 107.24C196.313 109.445 196.956 114.661 200.329 114.661C203.664 114.661 205.386 109.936 205.421 107.613ZM154.172 85.1022C157.127 84.6929 161.041 85.4706 162.418 88.2083C163.032 89.4281 162.305 90.7768 160.758 90.8444C157.018 91.0075 153.664 90.2492 150.381 92.4648C148.968 93.4185 147.78 94.7389 146.783 96.056L146.406 96.5572L146.094 96.9702C145.417 97.8767 144.776 98.8616 144.876 99.9554C144.906 100.279 144.542 100.586 144.197 100.574C142.046 100.493 141.814 98.0356 142.097 96.5596C142.623 93.8204 144.079 91.249 146.096 89.1779C148.214 87.003 151.01 85.5403 154.172 85.1022ZM194.877 88.4266C196.915 87.2331 199.522 86.7746 201.909 86.9503C206.616 87.2957 214.513 90.9412 213.474 96.1792C213.153 97.7946 210.687 98.6471 209.234 97.7508C207.671 96.7873 207.291 95.2897 206.128 94.0305C205.2 93.0246 204.024 92.2968 202.765 91.6769C201.524 91.0654 200.088 90.6949 198.68 90.5598L198.445 90.5394C197.597 90.4737 193.317 90.4913 193.945 91.9471C194.068 92.2321 193.603 92.4578 193.389 92.2422C192.076 90.9197 193.563 89.1964 194.877 88.4266Z" fill="black"/>
</svg>
